<svg width="400" height="400" xmlns="http://www.w3.org/2000/svg" xmlns:xlink="http://www.w3.org/1999/xlink" xml:space="preserve" overflow="hidden"><defs><clipPath id="clip0"><rect x="2476" y="1556" width="400" height="400"/></clipPath><clipPath id="clip1"><rect x="2524" y="1611" width="302" height="288"/></clipPath><clipPath id="clip2"><rect x="2524" y="1611" width="302" height="288"/></clipPath><clipPath id="clip3"><rect x="2524" y="1611" width="302" height="288"/></clipPath></defs><g clip-path="url(#clip0)" transform="translate(-2476 -1556)"><path d="M2481 1756C2481 1648.3 2568.3 1561 2676 1561 2783.7 1561 2871 1648.3 2871 1756 2871 1863.7 2783.7 1951 2676 1951 2568.3 1951 2481 1863.7 2481 1756Z" stroke="#0068A9" stroke-width="10.3125" stroke-miterlimit="8" fill="none" fill-rule="evenodd"/><g clip-path="url(#clip1)"><g clip-path="url(#clip2)"><g clip-path="url(#clip3)"><text font-family="Calibri,Calibri_MSFontService,sans-serif" font-weight="400" font-size="14" transform="matrix(0.373264 0 0 0.355903 2611.01 1820)"> </text><text font-family="Calibri,Calibri_MSFontService,sans-serif" font-weight="400" font-size="14" transform="matrix(0.373264 0 0 0.355903 2591.89 1461)"> </text><text font-family="Calibri,Calibri_MSFontService,sans-serif" font-weight="400" font-size="14" transform="matrix(0.373264 0 0 0.355903 2593.01 1461)"> </text><text font-family="Calibri,Calibri_MSFontService,sans-serif" font-weight="400" font-size="14" transform="matrix(0.373264 0 0 0.355903 2594.13 1461)"> </text><text font-family="Calibri,Calibri_MSFontService,sans-serif" font-weight="400" font-size="14" transform="matrix(0.373264 0 0 0.355903 2622.84 1845)"> </text><text font-family="Calibri,Calibri_MSFontService,sans-serif" font-weight="400" font-size="14" transform="matrix(0.373264 0 0 0.355903 2591.89 1461)"> </text><text font-family="Calibri,Calibri_MSFontService,sans-serif" font-weight="400" font-size="14" transform="matrix(0.373264 0 0 0.355903 2593.01 1461)"> </text><text font-family="Calibri,Calibri_MSFontService,sans-serif" font-weight="400" font-size="14" transform="matrix(0.373264 0 0 0.355903 2594.13 1461)"> </text><text font-family="Calibri,Calibri_MSFontService,sans-serif" font-weight="400" font-size="83" transform="matrix(0.3766 0 0 0.35275 2747.92 1930)"> </text><text font-family="Calibri,Calibri_MSFontService,sans-serif" font-weight="400" font-size="83" transform="matrix(0.3766 0 0 0.35275 2591.89 1461)"> </text><text font-family="Calibri,Calibri_MSFontService,sans-serif" font-weight="400" font-size="83" transform="matrix(0.3766 0 0 0.35275 2599.04 1461)"> </text><text font-family="Calibri,Calibri_MSFontService,sans-serif" font-weight="400" font-size="83" transform="matrix(0.3766 0 0 0.35275 2606.2 1461)"> </text><text font-family="Calibri,Calibri_MSFontService,sans-serif" font-weight="400" font-size="14" transform="matrix(0.373264 0 0 0.355903 2623.73 1848)"> </text><text font-family="Calibri,Calibri_MSFontService,sans-serif" font-weight="400" font-size="14" transform="matrix(0.373264 0 0 0.355903 2591.89 1461)"> </text><text font-family="Calibri,Calibri_MSFontService,sans-serif" font-weight="400" font-size="14" transform="matrix(0.373264 0 0 0.355903 2593.01 1461)"> </text><text font-family="Calibri,Calibri_MSFontService,sans-serif" font-weight="400" font-size="14" transform="matrix(0.373264 0 0 0.355903 2594.13 1461)"> </text><text fill="#0068A9" font-family="Calibri,Calibri_MSFontService,sans-serif" font-weight="400" font-size="14" transform="matrix(0.373264 0 0 0.355903 2623.01 1846)"> </text><text fill="#0068A9" font-family="Calibri,Calibri_MSFontService,sans-serif" font-weight="400" font-size="14" transform="matrix(0.373264 0 0 0.355903 2591.89 1461)"> </text><text fill="#0068A9" font-family="Calibri,Calibri_MSFontService,sans-serif" font-weight="400" font-size="14" transform="matrix(0.373264 0 0 0.355903 2593.01 1461)"> </text><text fill="#0068A9" font-family="Calibri,Calibri_MSFontService,sans-serif" font-weight="400" font-size="14" transform="matrix(0.373264 0 0 0.355903 2594.13 1461)"> </text><text fill="#0068A9" font-family="Calibri,Calibri_MSFontService,sans-serif" font-weight="400" font-size="74" transform="matrix(0.373264 0 0 0.355903 2745.59 1916)"> </text><text fill="#0068A9" font-family="Calibri,Calibri_MSFontService,sans-serif" font-weight="400" font-size="74" transform="matrix(0.373264 0 0 0.355903 2591.89 1461)"> </text><text fill="#0068A9" font-family="Calibri,Calibri_MSFontService,sans-serif" font-weight="400" font-size="74" transform="matrix(0.373264 0 0 0.355903 2598.23 1461)"> </text><text fill="#0068A9" font-family="Calibri,Calibri_MSFontService,sans-serif" font-weight="400" font-size="74" transform="matrix(0.373264 0 0 0.355903 2604.58 1461)"> </text><path d="M1.31684e-05 294.816 68.3334 363.15 96.8056 363.15 39.8611 306.205 159.444 306.205 159.444 283.428 39.8611 283.428 96.8056 226.483 68.3334 226.483Z" stroke="#0068A9" stroke-width="1.59444" fill="#0068A9" fill-rule="evenodd" transform="matrix(1.04878 0 0 1 2591.89 1460.68)"/></g></g></g></g></svg>