<svg width="30" height="30" viewBox="0 0 30 30" fill="none" xmlns="http://www.w3.org/2000/svg">
<path d="M21.2344 21.6991H21.2342L17.7181 21.6987C17.3298 21.6982 16.9575 21.5437 16.6829 21.2691C16.4084 20.9945 16.2539 20.6222 16.2535 20.2338V17.0111H14.4957V20.2338C14.4952 20.6222 14.3408 20.9945 14.0662 21.2691C13.7916 21.5437 13.4193 21.6982 13.031 21.6987L9.51584 21.6991C9.32346 21.6992 9.13295 21.6613 8.9552 21.5877C8.77746 21.5141 8.61595 21.4062 8.4799 21.2702C8.34386 21.1341 8.23594 20.9727 8.16231 20.7949C8.08868 20.6172 8.05078 20.4267 8.05078 20.2343V13.4623C8.05095 13.2582 8.09368 13.0564 8.17624 12.8698C8.25881 12.6832 8.37939 12.5158 8.53029 12.3784L14.3891 7.05124C14.6581 6.80486 15.0097 6.66818 15.3745 6.66815C15.7393 6.66812 16.0908 6.80475 16.3599 7.0511L22.2198 12.3784C22.3706 12.5159 22.4912 12.6832 22.5737 12.8699C22.6563 13.0565 22.699 13.2583 22.6992 13.4623V20.2343C22.6992 20.6228 22.5449 20.9954 22.2702 21.2701C21.9955 21.5448 21.6229 21.6991 21.2344 21.6991ZM18.0113 19.9409L20.9414 19.9413V13.5919L15.3746 8.531L9.80859 13.5919V19.9413L12.7379 19.9409V16.7181C12.7383 16.3298 12.8928 15.9574 13.1674 15.6828C13.442 15.4082 13.8143 15.2537 14.2027 15.2533H16.5464C16.9348 15.2537 17.3071 15.4082 17.5818 15.6828C17.8564 15.9574 18.0109 16.3298 18.0113 16.7181V19.9409Z" fill="#046CAC"/>
<circle cx="15" cy="15" r="14.5" stroke="#046CAC"/>
</svg>
