<svg width="31" height="31" viewBox="0 0 31 31" fill="none" xmlns="http://www.w3.org/2000/svg">
<path d="M13.7605 8.77013L16.2605 8.76709L16.2636 11.2671L13.7636 11.2701L13.7605 8.77013ZM13.7666 13.7701L16.2666 13.7671L16.2757 21.2671L13.7757 21.2701L13.7666 13.7701ZM15.0029 2.51862C8.10293 2.52701 2.50974 8.13381 2.51813 15.0338C2.52652 21.9338 8.13332 27.527 15.0333 27.5186C21.9333 27.5102 27.5265 21.9034 27.5181 15.0034C27.5097 8.10342 21.9029 2.51023 15.0029 2.51862ZM15.0303 25.0186C9.51778 25.0253 5.02483 20.5433 5.01812 15.0308C5.01142 9.51827 9.49346 5.02532 15.006 5.01861C20.5185 5.01191 25.0114 9.49395 25.0181 15.0065C25.0248 20.5189 20.5428 25.0119 15.0303 25.0186Z" fill="#0058A6"/>
</svg>
