<svg width="110" height="72" viewBox="0 0 110 72" fill="none" xmlns="http://www.w3.org/2000/svg">
<g clip-path="url(#clip0_657_1420)">
<path d="M38.8672 4.50884L29.2686 3.71693L30.833 1.81317L39.3922 2.43721L38.8672 4.50884Z" fill="white"/>
<path d="M22.8312 11.5476L36.6173 13.2476L34.9885 19.6048L18.3115 17.0418L22.8312 11.5476Z" fill="white"/>
<path d="M29.6641 3.67755L21.6863 6.52711L17.8228 4.68719L25.6707 2.30237L29.6641 3.67755Z" fill="white"/>
<path d="M36.0303 13.3491L43.627 8.47479L51.5859 11.2076L44.837 17.5374L36.0303 13.3491Z" fill="white"/>
<path d="M21.8898 6.33777L23.1881 11.7553L13.4404 13.2089L14.2551 7.22823L21.8898 6.33777Z" fill="white"/>
<path d="M43.6296 8.70343L38.5146 4.40268L44.2519 3.73431L50.4408 7.6878L43.6296 8.70343Z" fill="white"/>
<path d="M39.6772 1.34112L31.6694 0.797364L32.3261 0L39.8953 0.481084L39.6772 1.34112Z" fill="white"/>
<path d="M14.2075 22.0338L33.4631 25.5487L31.5526 32.9862L9.22461 28.0949L14.2075 22.0338Z" fill="white"/>
<path d="M23.4261 1.5334L15.6982 3.67738L13.9937 2.86478L21.6019 0.906921L23.4261 1.5334Z" fill="white"/>
<path d="M52.0811 20.9816L57.8135 13.349L64.3519 15.5946L60.0436 24.7715L52.0811 20.9816Z" fill="white"/>
<path d="M8.99551 7.83948L6.57796 14.232L0 15.2149L4.03245 8.41731L8.99551 7.83948Z" fill="white"/>
<path d="M54.4921 7.08457L47.7095 3.33059L50.663 2.98633L57.9149 6.57066L54.4921 7.08457Z" fill="white"/>
<path d="M41.0163 71.076H40.3181L39.9276 70.253H38.04L37.6495 71.076H36.9653L38.5127 67.8212H39.4638L41.0163 71.076ZM38.9725 68.2908L38.2927 69.7184H39.6746L39 68.2908H38.9725Z" fill="white"/>
<path d="M46.0364 69.551C46.0364 70.6205 45.5583 71.076 44.3461 71.076H42.5688V67.8212H44.3369C45.5495 67.8212 46.0364 68.277 46.0364 69.3509V69.551ZM43.1889 68.3557V70.5414H44.2541C45.1913 70.5414 45.4028 70.1928 45.4028 69.4861V69.4159C45.4028 68.7002 45.1913 68.3557 44.2541 68.3557H43.1889Z" fill="white"/>
<path d="M47.2626 71.076H46.6426V67.8212H48.7509C49.1685 67.8212 49.4718 67.9002 49.6599 68.0535C49.8535 68.2069 49.9495 68.4719 49.9495 68.8576V68.9786C49.9495 69.6624 49.6093 69.9928 48.7509 69.9928H47.2626V71.076ZM47.2626 68.3509V69.4623H48.6405C49.1913 69.4623 49.3247 69.3138 49.3247 68.9326V68.8813C49.3247 68.4905 49.1781 68.3509 48.6361 68.3509H47.2626Z" fill="white"/>
<path d="M55.8146 71.076H54.9742L54.0601 68.5833L53.1416 71.076H52.2689L51.2954 67.8212H51.9748L52.7283 70.4341H52.7602L53.7114 67.8212H54.4275L55.3826 70.4341H55.4101L56.1589 67.8212H56.7884L55.8146 71.076Z" fill="white"/>
<path d="M58.7446 71.1227C57.5324 71.1227 57.0366 70.6665 57.0366 69.5974V69.3042C57.0366 68.2299 57.5324 67.7744 58.7446 67.7744H59.0155C60.2237 67.7744 60.729 68.2303 60.729 69.3042V69.5974C60.729 70.6665 60.2237 71.1227 59.0155 71.1227H58.7446ZM58.9653 70.5786C59.8977 70.5685 60.0906 70.2389 60.0906 69.5273V69.3691C60.0906 68.6583 59.8977 68.3279 58.9653 68.319H58.7999C57.8635 68.3279 57.6699 68.6583 57.6699 69.3691V69.5273C57.6699 70.2389 57.8635 70.5685 58.7999 70.5786H58.9653Z" fill="white"/>
<path d="M61.9511 71.076H61.3311V67.8212H63.4849C64.3165 67.8212 64.6377 68.0535 64.6377 68.6534V68.7744C64.6377 69.263 64.4587 69.4623 64.0591 69.5139V69.5373C64.4448 69.6022 64.6377 69.7136 64.6377 70.276V71.076H64.0129V70.3551C64.0129 69.9367 63.8845 69.8435 63.292 69.8435H61.9511V71.076ZM61.9511 68.3557V69.309H63.3749C63.8662 69.309 64.0129 69.1976 64.0129 68.8491V68.8212C64.0129 68.4537 63.8526 68.3561 63.2828 68.3561L61.9511 68.3557Z" fill="white"/>
<path d="M67.9995 71.076H65.2715V67.8212H65.8915V70.5225H67.9995V71.076Z" fill="white"/>
<path d="M71.9495 69.551C71.9495 70.6205 71.4714 71.076 70.2588 71.076H68.4819V67.8212H70.25C71.4622 67.8212 71.9495 68.277 71.9495 69.3509V69.551ZM69.1016 68.3557V70.5414H70.1671C71.1043 70.5414 71.3155 70.1928 71.3155 69.4861V69.4159C71.3155 68.7002 71.1043 68.3557 70.1671 68.3557H69.1016Z" fill="white"/>
<path d="M75.2611 71.1227C74.0672 71.1227 73.5986 70.6665 73.5986 69.5974V69.2997C73.5986 68.2306 74.0672 67.7751 75.2611 67.7751H75.5643C76.0648 67.7751 76.4414 67.8583 76.694 68.0305C76.9463 68.2024 77.112 68.4767 77.1854 68.8583H76.5474C76.4326 68.4816 76.1521 68.3186 75.4866 68.3186H75.3392C74.4302 68.3186 74.2326 68.6534 74.2326 69.3699V69.5273C74.2326 70.2437 74.4302 70.5782 75.3392 70.5782H75.4866C76.1521 70.5782 76.433 70.4159 76.5474 70.0395H77.1854C77.1124 70.42 76.947 70.6944 76.694 70.8666C76.441 71.0388 76.0652 71.1227 75.5647 71.1227H75.2611Z" fill="white"/>
<path d="M78.9032 71.1228C78.0445 71.1228 77.5986 70.7694 77.5986 69.9089V69.7786C77.5986 68.9185 78.0489 68.5651 78.908 68.5651H79.0682C79.9273 68.5651 80.3677 68.9185 80.3677 69.7786V69.9089C80.3677 70.7694 79.9226 71.1228 79.0635 71.1228H78.9032ZM79.799 69.8855V69.8016C79.799 69.165 79.5002 69.0577 78.9854 69.0577C78.4717 69.0577 78.1725 69.165 78.1725 69.8016V69.8855C78.1725 70.5225 78.4717 70.6294 78.9854 70.6294C79.5002 70.6294 79.799 70.5225 79.799 69.8855Z" fill="white"/>
<path d="M85.0162 71.076H84.4424V69.6442C84.4424 69.1468 84.1945 69.0629 83.8634 69.0629C83.455 69.0629 83.1976 69.2159 83.1976 69.7508V71.076H82.6241V69.6442C82.6241 69.1468 82.3847 69.0629 82.0448 69.0629C81.6363 69.0629 81.3785 69.2159 81.3785 69.7508V71.076H80.8047V68.6115H81.3785V69.0258H81.4013C81.5168 68.7422 81.7551 68.5651 82.2197 68.5651C82.6553 68.5651 82.9812 68.6813 83.1242 69.0395H83.1473C83.2709 68.7422 83.5371 68.5651 84.0284 68.5651C84.6166 68.5651 85.0162 68.7793 85.0162 69.4954V71.076Z" fill="white"/>
<path d="M85.4897 68.6115H86.0588V69.002H86.0771C86.2011 68.7281 86.4493 68.5651 86.9821 68.5651H87.0506C87.7583 68.5651 88.2588 68.8394 88.2588 69.7597V69.9226C88.2588 70.8484 87.7583 71.1228 87.0506 71.1228H86.9821C86.4493 71.1228 86.2011 70.9598 86.0771 70.6855H86.0588V71.8667H85.4897V68.6115ZM86.0588 69.7975V69.8855C86.0588 70.5225 86.3477 70.6294 86.8721 70.6294C87.3997 70.6294 87.6846 70.5225 87.6846 69.8855V69.8016C87.6846 69.165 87.3997 69.0577 86.8721 69.0577C86.3477 69.0577 86.0588 69.1698 86.0588 69.7975Z" fill="white"/>
<path d="M91.1891 71.076H90.6197V70.6807H90.601C90.487 70.9457 90.2109 71.1228 89.618 71.1228C88.962 71.1228 88.5986 70.8666 88.5986 70.3603V70.3321C88.5986 69.8673 88.8604 69.6253 89.4302 69.6023L90.6153 69.5511V69.5043C90.6153 69.0767 90.3854 68.9887 89.9355 68.9887C89.545 68.9887 89.3617 69.0815 89.274 69.3231H88.6954C88.8102 68.8164 89.1593 68.5651 89.9307 68.5651H90.0088C90.817 68.5651 91.1895 68.8023 91.1895 69.5511L91.1891 71.076ZM89.1772 70.3369C89.1772 70.6112 89.3976 70.7178 89.7841 70.7178C90.3161 70.7178 90.6153 70.4951 90.6153 70.0997V69.9368L89.618 69.9787C89.3111 69.9928 89.1772 70.086 89.1772 70.3132V70.3369Z" fill="white"/>
<path d="M94.1426 71.076H93.5728V69.6442C93.5728 69.1468 93.3063 69.0629 92.944 69.0629C92.7236 69.0629 92.5487 69.1089 92.42 69.2069C92.2964 69.2998 92.2315 69.4813 92.2315 69.7459V71.076H91.6577V68.6115H92.2315V69.0299H92.2543C92.3786 68.7563 92.6268 68.5651 93.1229 68.5651C93.7202 68.5651 94.1426 68.7745 94.1426 69.5273V71.076Z" fill="white"/>
<path d="M95.6533 71.8667H95.0472L95.4465 71.0667L94.3311 68.6115H94.9463L95.7409 70.4067H95.768L96.5402 68.6115H97.1276L95.6533 71.8667Z" fill="white"/>
<path d="M80.0534 33.5258L80.2693 32.5259H67.8793L67.3946 34.5695H75.3831C74.7888 35.2277 64.0693 47.1677 64.0693 47.1677L63.8247 48.2877H77.3177L77.7536 46.357C78.5577 47.8088 79.958 48.6511 81.7536 48.6511C84.2018 48.6511 85.8812 47.239 86.8008 46.272C86.6369 47.0192 86.3501 48.2877 86.3501 48.2877H89.2431L92.813 32.5946L92.5259 32.5465C91.2378 32.3343 90.0212 32.1342 88.5432 32.1342C83.7442 32.1342 80.9781 34.345 79.5063 36.1989C77.6521 38.5292 76.9913 41.2799 76.9913 43.0744C76.9913 44.2634 77.2253 45.3046 77.6458 46.1551H68.6827C69.2767 45.4976 80.0534 33.5258 80.0534 33.5258ZM87.8274 34.2685C88.3932 34.2704 88.9579 34.3186 89.5159 34.4126C89.4228 34.8262 87.4996 43.2429 87.4864 43.3012C87.4003 43.4422 86.6651 44.3491 86.4638 44.5566C85.2435 45.8195 84.0071 46.4554 82.7971 46.4554C81.1229 46.4554 80.0831 45.1483 80.0831 43.0454C80.0831 40.7034 81.9201 34.2685 87.8274 34.2685Z" fill="white"/>
<path d="M60.5575 48.2873C60.5575 48.2873 63.6412 34.8225 63.7127 34.5111H66.6313L67.0831 32.5258H64.1571C64.5916 30.352 65.2424 27.7908 69.1448 27.8747L69.3106 27.8802L69.6028 26.6181L69.4147 26.5652C68.8438 26.3991 68.138 26.1936 67.1546 26.1936C64.0298 26.1936 62.6684 28.3577 62.3274 29.0188C61.8995 29.787 61.6465 30.7176 61.1882 32.5258H59.0087L58.5566 34.5111H60.7328C60.618 34.9989 57.604 48.2873 57.604 48.2873H60.5575Z" fill="white"/>
<path d="M53.6197 32.1342C48.82 32.1342 46.0546 34.3451 44.5828 36.1989C42.7264 38.5292 42.0679 41.2799 42.0679 43.0743C42.0679 46.462 43.9371 48.6511 46.8305 48.6511C49.2762 48.6511 50.9555 47.239 51.878 46.272C51.7119 47.0192 51.4289 48.2873 51.4289 48.2873H54.3197L57.8895 32.5946L57.6002 32.5465C56.3121 32.3343 55.0981 32.1342 53.6201 32.1342M52.5652 43.3011C52.475 43.4422 51.7446 44.3491 51.5389 44.5566C50.3164 45.8194 49.084 46.4553 47.87 46.4553C46.1976 46.4553 45.1603 45.1483 45.1603 43.045C45.1603 40.7034 46.9948 34.2684 52.9051 34.2684C53.4705 34.2708 54.0344 34.319 54.5921 34.4126C54.4971 34.8262 52.5758 43.2436 52.5652 43.3011Z" fill="white"/>
<path d="M40.6476 26.4815L35.6605 46.7686C35.0771 49.0728 34.2757 52.2288 30.9846 52.2288C28.841 52.2288 27.9765 50.9552 27.4562 50.192L27.3126 49.9852L25.896 50.5881L25.9885 50.8627C26.3538 51.9411 27.324 54.8132 31.3409 54.8132C37.1884 54.8132 38.3394 49.7729 39.0291 46.7623L44.0227 26.4814H40.6476V26.4815Z" fill="white"/>
<path d="M69.1405 60.4404L69.3069 59.7388L69.2468 59.6735L68.3738 59.6764L68.2678 59.7425L68.0977 60.4445L68.175 60.5224L69.0389 60.5195L69.1405 60.4404Z" fill="white"/>
<path d="M65.0024 65.0156H66.0504L67.4312 59.4185L66.3422 59.5718L65.0024 65.0156Z" fill="white"/>
<path d="M82.4063 63.0867C82.5101 62.6428 82.689 61.8918 82.2721 61.3194C81.9095 60.8268 81.2979 60.7711 80.9543 60.7711C79.532 60.7711 78.5446 61.7396 78.2513 62.9282C77.9444 64.1733 78.4544 65.1811 79.8954 65.1811C81.2744 65.1811 81.8013 64.3477 82.0826 63.9049L81.8552 63.7783C81.4922 64.1347 81.1116 64.5077 80.3842 64.5077C79.1459 64.5077 79.2882 63.3893 79.3248 63.0867H82.4063ZM80.7644 61.4374C81.5461 61.4374 81.4684 62.1056 81.4251 62.4702H79.5001C79.7011 62.0652 80.012 61.4374 80.7644 61.4374Z" fill="white"/>
<path d="M66.958 65.0156H68.0015L69.0022 60.9549H67.9608L66.958 65.0156Z" fill="white"/>
<path d="M75.9712 60.9549L74.9731 65.0156H76.0207L76.7966 61.8673C77.0063 61.7481 77.2802 61.59 77.6634 61.59C77.9523 61.59 78.1345 61.685 78.3069 61.7797L78.5338 60.8602C78.4374 60.8435 78.3399 60.8353 78.242 60.8357C77.5296 60.8357 77.1035 61.2567 76.8963 61.4627L77.0213 60.9549H75.9712Z" fill="white"/>
<path d="M54.9912 63.0867C55.0928 62.6428 55.2699 61.8918 54.8548 61.3194C54.4878 60.8268 53.8787 60.7711 53.5326 60.7711C52.1154 60.7711 51.1258 61.7396 50.8321 62.9282C50.5266 64.1733 51.0371 65.1811 52.4799 65.1811C53.8571 65.1811 54.3814 64.3477 54.6648 63.9049L54.4379 63.7783C54.0775 64.1347 53.6946 64.5077 52.9646 64.5077C51.7282 64.5077 51.8708 63.3893 51.9057 63.0867H54.9912ZM53.3471 61.4374C54.1292 61.4374 54.0518 62.1056 54.0085 62.4702H52.0828C52.2833 62.0652 52.5928 61.4374 53.3471 61.4374Z" fill="white"/>
<path d="M45.534 63.0867C45.6355 62.6428 45.8108 61.8918 45.3983 61.3194C45.0324 60.8268 44.4208 60.7711 44.0735 60.7711C42.6556 60.7711 41.6678 61.7396 41.3741 62.9282C41.0672 64.1733 41.5791 65.1811 43.0201 65.1811C44.3991 65.1811 44.9246 64.3477 45.2054 63.9049L44.9781 63.7783C44.6177 64.1347 44.233 64.5077 43.507 64.5077C42.2688 64.5077 42.4111 63.3893 42.4459 63.0867H45.534ZM43.8869 61.4374C44.6694 61.4374 44.5916 62.1056 44.5509 62.4702H42.623C42.8236 62.0652 43.1349 61.4374 43.8869 61.4374Z" fill="white"/>
<path d="M56.5534 59.5718L55.2144 65.0152H56.2623L57.6402 59.4185L56.5534 59.5718Z" fill="white"/>
<path d="M63.1168 63.7783L63.3584 65.0156H64.549L63.3881 59.4188L62.8975 59.5718L59.0039 65.0156H59.977L60.8284 63.7783H63.1168ZM62.5851 61.2259L62.9588 63.0411H61.3385L62.5851 61.2259Z" fill="white"/>
<path d="M47.0955 59.5714L45.7539 65.0156H46.804L46.9074 64.5928C46.9984 64.7609 47.2422 65.1967 47.9257 65.1967C48.7092 65.1967 49.8551 64.5791 50.2591 62.9457C50.5675 61.6851 50.1528 60.789 49.081 60.789C48.3228 60.789 47.8971 61.2096 47.6895 61.4148L48.1823 59.4181L47.0955 59.5714ZM48.5391 61.4375C48.9388 61.4375 49.1375 61.668 49.2174 61.9936C49.2933 62.3117 49.2259 62.6747 49.1635 62.9379C48.8354 64.2698 48.1559 64.5475 47.7504 64.5475C47.3027 64.5475 47.137 64.2628 47.0354 64.0798L47.5557 61.9691C47.5557 61.9631 47.9337 61.4375 48.5391 61.4375Z" fill="white"/>
<path d="M72.6005 59.5718L71.2607 65.0152H72.3736L72.991 62.4943H75.0121L75.2061 61.7077H73.1857L73.5619 60.1787H75.8954L76.0883 59.4099H72.7604L72.6005 59.5718Z" fill="white"/>
<path d="M96.5377 65.1811C98.0098 65.1811 98.9276 64.0953 99.2066 62.9617C99.5722 61.488 98.7186 60.7711 97.6512 60.789C96.739 60.8042 95.4509 61.3907 95.0538 63.0029C94.73 64.3173 95.317 65.1811 96.5377 65.1811ZM96.164 62.9702C96.3822 62.0893 96.8647 61.4375 97.5064 61.4375C98.1869 61.4375 98.3076 62.1209 98.0879 63.0248C97.8819 63.8555 97.3982 64.5382 96.7441 64.5382C96.0933 64.5382 95.9418 63.889 96.164 62.9702Z" fill="white"/>
<path d="M108.515 63.0867C108.618 62.6428 108.795 61.8918 108.38 61.3194C108.015 60.8268 107.403 60.7711 107.057 60.7711C105.642 60.7711 104.652 61.7396 104.36 62.9282C104.054 64.1733 104.563 65.1811 106.005 65.1811C107.381 65.1811 107.909 64.3477 108.189 63.9049L107.962 63.7783C107.602 64.1347 107.22 64.5077 106.493 64.5077C105.255 64.5077 105.395 63.3893 105.432 63.0867H108.515ZM106.871 61.4374C107.654 61.4374 107.576 62.1056 107.533 62.4702H105.607C105.811 62.0652 106.12 61.4374 106.871 61.4374Z" fill="white"/>
<path d="M38.3293 65.1811C38.8408 65.1863 39.3388 65.016 39.7425 64.6982C40.2415 64.2936 40.3973 63.8496 40.5378 63.2713L41.4863 59.4188L40.3365 59.5718L39.5027 62.9539C39.352 63.5727 39.239 63.8737 39.0271 64.1276C38.9255 64.2531 38.7983 64.3545 38.6538 64.4242C38.5094 64.494 38.3513 64.5304 38.1911 64.5315C38.0712 64.5341 37.9524 64.5081 37.8442 64.4554C37.7357 64.4031 37.6415 64.3255 37.5681 64.229C37.49 64.1195 37.4332 63.9959 37.3998 63.8648L37.061 63.9999C37.0757 64.2071 37.0871 64.4981 37.2942 64.7535C37.4798 65.007 37.8255 65.1811 38.3293 65.1811Z" fill="white"/>
<path d="M100.445 60.9549L99.4448 65.0156H100.484L101.23 61.9932C101.463 61.789 101.791 61.495 102.222 61.495C102.6 61.495 102.736 61.7397 102.742 61.9691C102.74 62.1094 102.717 62.2486 102.675 62.3826L102.027 65.0156H103.079L103.753 62.2723C103.836 61.9308 103.916 61.5262 103.695 61.2092C103.54 60.988 103.237 60.8358 102.824 60.8358C102.064 60.8358 101.618 61.2482 101.355 61.488L101.489 60.9549H100.445Z" fill="white"/>
<path d="M89.3662 65.0156H94.1567L94.3514 64.229H91.1852L95.4041 59.6954L95.4727 59.4188H91.0928L90.9414 59.5718L90.7859 60.1954H93.6683L89.4245 64.7698L89.3662 65.0156Z" fill="white"/>
<path d="M87.1385 63.0867C87.2408 62.6428 87.4149 61.8918 87.0028 61.3194C86.6376 60.8268 86.0234 60.7711 85.6806 60.7711C84.2627 60.7711 83.2709 61.7396 82.9812 62.9282C82.6739 64.1733 83.1865 65.1811 84.6253 65.1811C86.0043 65.1811 86.5298 64.3477 86.8103 63.9049L86.5851 63.7783C86.2247 64.1347 85.8427 64.5077 85.1137 64.5077C83.8755 64.5077 84.0185 63.3893 84.0504 63.0867H87.1385ZM85.4943 61.4374C86.2746 61.4374 86.1991 62.1056 86.158 62.4702H84.23C84.4306 62.0652 84.7401 61.4374 85.4943 61.4374Z" fill="white"/>
<path d="M68.7672 52.9111C68.7793 52.8164 68.7609 52.7199 68.7147 52.6364C68.6825 52.6004 68.6432 52.5714 68.5992 52.5518C68.5556 52.5317 68.5079 52.5213 68.4599 52.5206C68.2007 52.5206 68.0408 52.6468 67.9843 52.8966C67.9719 52.9438 67.9693 52.9935 67.977 53.0418C67.9843 53.09 68.0016 53.1364 68.0276 53.1776C68.0797 53.2593 68.1724 53.3005 68.2978 53.3005C68.5508 53.3005 68.7089 53.1702 68.7672 52.9111Z" fill="white"/>
<path d="M78.2725 55.8648H78.9875L80.306 50.0873L80.2063 50.1864C80.1307 50.2666 79.9925 50.3924 79.8018 50.5598C79.7179 50.6218 79.5947 50.7065 79.4392 50.8056L79.426 50.8149L78.2849 55.8155L78.2725 55.8648Z" fill="white"/>
<path d="M38.9708 57.5364C38.8913 57.611 38.8355 57.7083 38.811 57.8156C38.797 57.8646 38.7937 57.9165 38.8014 57.967C38.8095 58.0179 38.8282 58.0661 38.8568 58.1084C38.9151 58.1927 39.0115 58.2365 39.1439 58.2365C39.262 58.241 39.3778 58.2027 39.4702 58.1281C39.5626 58.0539 39.6257 57.9481 39.6477 57.8308C39.6649 57.7313 39.6455 57.6288 39.5931 57.5431C39.5601 57.5008 39.5179 57.4666 39.4695 57.4436C39.4211 57.421 39.3683 57.4098 39.3151 57.4109C39.1886 57.4061 39.0651 57.451 38.9708 57.5364Z" fill="white"/>
<path d="M41.9463 53.2812C41.5888 53.3654 41.2397 53.4846 40.9046 53.6361C40.1855 53.972 39.7668 54.3893 39.6561 54.8752L39.4416 55.8143C39.3165 56.2858 39.1178 56.5382 38.8432 56.5623C38.6877 56.5787 38.4461 56.4766 38.1216 56.2657L38.0244 56.2004L38.0629 56.3129C38.2316 56.7702 38.4637 57.0022 38.7574 57.0022H38.7676C39.1061 57.0056 39.4339 56.8827 39.6883 56.6574C39.9245 56.4391 40.0865 56.1507 40.1507 55.8336L40.3667 54.8926C40.385 54.769 40.4404 54.6539 40.5247 54.5626C40.6391 54.4568 40.7685 54.3696 40.9086 54.3035C40.961 54.2771 41.0149 54.25 41.0732 54.2237L40.6996 55.8641H48.5958L48.7556 55.1573H47.4507C47.3788 55.1573 47.3161 55.1172 47.2622 55.0337C47.2068 54.9561 47.1845 54.8596 47.1995 54.7649C47.2156 54.6406 47.2717 54.5247 47.3594 54.436C47.3971 54.3941 47.4426 54.361 47.4939 54.3384C47.5449 54.3158 47.5999 54.3042 47.6556 54.3046H48.9522L49.1102 53.5989H47.7983C47.6344 53.5975 47.4719 53.6286 47.3201 53.691C47.1687 53.7534 47.0305 53.8454 46.9142 53.962C46.6997 54.1621 46.5564 54.4282 46.5065 54.7193C46.4717 54.9182 46.4951 55.0637 46.582 55.1573H44.5335L45.5227 50.8171L45.4971 50.803C45.2767 50.6905 45.1161 50.4893 45.0219 50.2009L44.9779 50.0695L43.8177 55.1573H41.577L42.0071 53.2645L41.9463 53.2812ZM38.7574 56.9625V56.9606H38.7581L38.7574 56.9625Z" fill="white"/>
<path d="M59.1576 56.2134C59.0835 56.2836 59.0326 56.3745 59.0109 56.4747C58.9805 56.608 58.9911 56.7108 59.045 56.781C59.0967 56.8448 59.1833 56.8775 59.3024 56.8775H59.3197C59.4388 56.8764 59.5536 56.833 59.6442 56.7554C59.7201 56.6926 59.771 56.6047 59.7883 56.507C59.8125 56.3756 59.7974 56.2754 59.7413 56.2071C59.6867 56.141 59.598 56.1091 59.4729 56.1091C59.3585 56.1028 59.2463 56.1399 59.1576 56.2134Z" fill="white"/>
<path d="M66.3944 55.1874L66.2393 55.8648H68.2116L68.7322 53.5841L68.6673 53.6016C68.3128 53.691 67.9663 53.8117 67.6322 53.9624C66.9191 54.3017 66.5003 54.7144 66.394 55.1874M67.3792 54.7686C67.52 54.6963 67.6557 54.6209 67.7965 54.5455L67.6557 55.158H67.1163C67.1526 54.9995 67.2465 54.8603 67.3796 54.7686" fill="white"/>
<path d="M54.4418 50.1875C54.3358 50.3119 54.2196 50.4273 54.0945 50.5327C53.8984 50.669 53.762 50.7584 53.6776 50.8033L53.6604 50.8119L52.5212 55.814C52.398 56.2854 52.1974 56.5378 51.9246 56.5623C51.7691 56.5787 51.5275 56.4762 51.2037 56.2654L51.104 56.2004L51.1425 56.3129C51.3112 56.7654 51.5466 56.9963 51.8388 56.9963H51.8491C52.1849 56.9981 52.5102 56.876 52.7639 56.6529C52.9883 56.4376 53.1478 56.1625 53.2237 55.8593L53.3641 55.8604V55.8645H63.5846L64.7279 50.8486L64.7337 50.8178L64.7088 50.8037C64.4906 50.6912 64.3326 50.49 64.2351 50.2009L64.1918 50.0695L63.0295 55.158H60.7286C60.5728 55.158 60.4738 55.1287 60.4364 55.0734C60.3697 54.9609 60.3334 54.7894 60.3282 54.5667C60.3396 54.4219 60.3073 54.2768 60.2358 54.1509C60.2017 54.0878 60.1541 54.0329 60.0965 53.9906C60.0389 53.9482 59.9729 53.9193 59.9029 53.9056H59.2957L59.1358 54.6112H59.5252C59.5978 54.6112 59.6305 54.7334 59.6459 54.8343C59.6569 54.9438 59.6763 55.0519 59.7042 55.158H56.5512L57.0007 53.191L56.9032 53.2919C56.7969 53.4037 56.6843 53.5091 56.5662 53.6075C56.3741 53.7508 56.2318 53.8521 56.1343 53.9111L56.1189 53.9208L55.838 55.158H53.3876L54.5466 50.0769L54.4418 50.1875ZM51.8388 56.9573V56.9554H51.8395L51.8388 56.9573Z" fill="white"/>
<path d="M55.8813 56.3545C55.754 56.3526 55.6308 56.399 55.5359 56.4848C55.4501 56.5571 55.391 56.657 55.369 56.768C55.358 56.8181 55.3569 56.8701 55.3657 56.9206C55.3749 56.971 55.3936 57.0193 55.4211 57.0624C55.4754 57.1529 55.5751 57.1967 55.7089 57.1967H55.713C55.9806 57.1615 56.1383 57.0241 56.1794 56.7832C56.1999 56.6845 56.1841 56.5816 56.1343 56.4944C56.1093 56.4495 56.0723 56.4124 56.0276 56.3875C55.9828 56.363 55.9322 56.3515 55.8813 56.3545Z" fill="white"/>
<path d="M67.3814 53.3072C67.619 53.3016 67.7682 53.1717 67.8247 52.9193C67.8379 52.8732 67.8408 52.825 67.8338 52.7778C67.8265 52.7307 67.8096 52.6854 67.784 52.6453C67.7576 52.6052 67.7216 52.5726 67.6791 52.5507C67.6366 52.5291 67.5893 52.5187 67.542 52.521C67.4243 52.5161 67.3091 52.5566 67.2193 52.6338C67.1401 52.7036 67.0847 52.7968 67.062 52.9003C67.0492 52.9493 67.0473 53.0006 67.0565 53.0503C67.066 53.1 67.0862 53.1472 67.1159 53.188C67.1427 53.2281 67.1793 53.2604 67.2219 53.2819C67.2648 53.3031 67.3121 53.3131 67.3597 53.3109C67.3671 53.3116 67.3748 53.3105 67.3814 53.3072Z" fill="white"/>
<path d="M71.0424 54.2378C70.9354 54.3655 70.818 54.4839 70.6919 54.5923C70.4976 54.7211 70.3593 54.8076 70.275 54.854L70.2596 54.8625L70.0436 55.8143C69.9182 56.2858 69.7199 56.5382 69.4449 56.5623C69.2898 56.579 69.0478 56.4766 68.7233 56.2657L68.6235 56.2004L68.665 56.3129C68.8336 56.7654 69.0694 56.9966 69.3631 56.9966H69.3734C69.7085 56.9985 70.0326 56.8764 70.2853 56.6529C70.5111 56.4383 70.6714 56.1633 70.748 55.8593L70.8866 55.8607L70.8844 55.8648H77.7271L78.873 50.8486L78.877 50.8178L78.8488 50.8037C78.635 50.6912 78.4751 50.4897 78.378 50.2009L78.3329 50.0695L77.1724 55.158H74.8712C74.7153 55.158 74.6138 55.1287 74.5789 55.0734C74.5118 54.9635 74.4759 54.7894 74.4711 54.5667C74.4807 54.4215 74.4477 54.2768 74.3762 54.1509C74.3432 54.0871 74.2962 54.0318 74.239 53.9895C74.1818 53.9468 74.1155 53.9182 74.0454 53.9056H73.4382L73.2784 54.6112H73.6678C73.7385 54.6112 73.7734 54.7334 73.7884 54.8343C73.8005 54.9435 73.8192 55.0515 73.8449 55.158H70.9079L71.1092 54.2749L71.0424 54.2378ZM69.3631 56.9573V56.9554H69.3638L69.3631 56.9573Z" fill="white"/>
<path d="M37.8133 57.8148C37.799 57.866 37.7968 57.9202 37.8074 57.9725C37.8181 58.0249 37.8408 58.0735 37.8738 58.1151C37.9046 58.1552 37.9442 58.1871 37.99 58.2079C38.0355 58.229 38.0854 58.2383 38.1352 58.2357H38.1561C38.4135 58.2309 38.5756 58.0939 38.6361 57.8311C38.6489 57.7821 38.6508 57.7309 38.6423 57.6811C38.6339 57.631 38.6148 57.5835 38.587 57.5416C38.5584 57.4985 38.5195 57.464 38.4737 57.441C38.4278 57.4179 38.3769 57.4072 38.3255 57.4102C38.0469 57.4102 37.8738 57.5464 37.8133 57.8148Z" fill="white"/>
<path d="M88.6146 51.7707C88.6989 51.6957 88.7557 51.594 88.7762 51.4819C88.7872 51.43 88.788 51.3761 88.7777 51.3242C88.7671 51.2718 88.7462 51.2224 88.7161 51.179C88.6835 51.1378 88.6417 51.1048 88.5936 51.0836C88.546 51.0621 88.4936 51.0528 88.4415 51.0561C88.319 51.0513 88.1991 51.0936 88.106 51.1746C88.0202 51.251 87.9608 51.3527 87.9359 51.4656C87.9205 51.5153 87.916 51.568 87.9234 51.62C87.9311 51.6716 87.9501 51.721 87.9791 51.764C88.0334 51.845 88.1324 51.8865 88.2706 51.8865C88.3953 51.8921 88.5178 51.8509 88.6142 51.7707" fill="white"/>
<path d="M98.6645 52.7901C98.945 52.7834 99.1114 52.6516 99.1595 52.3962C99.1829 52.2563 99.1653 52.149 99.107 52.0766C99.0506 52.009 98.9582 51.9727 98.8328 51.9727C98.5581 51.9727 98.3898 52.1067 98.3315 52.3643C98.3183 52.4151 98.3158 52.4682 98.3242 52.5198C98.333 52.5718 98.3524 52.6208 98.3814 52.6642C98.4111 52.7065 98.4507 52.74 98.4965 52.7622C98.5427 52.7841 98.5937 52.7938 98.6447 52.7901H98.6645Z" fill="white"/>
<path d="M105.903 55.8648H106.614L107.933 50.0884L107.835 50.1864C107.757 50.268 107.619 50.3924 107.432 50.5598C107.345 50.6218 107.224 50.7064 107.068 50.8056L107.056 50.8148L105.914 55.8154L105.903 55.8648Z" fill="white"/>
<path d="M87.2874 51.9018H87.2915C87.4319 51.884 87.536 51.8439 87.6068 51.7774C87.69 51.7002 87.7461 51.5974 87.7667 51.4849C87.7843 51.3821 87.77 51.2763 87.726 51.182C87.6948 51.1415 87.6548 51.1089 87.609 51.087C87.5635 51.0654 87.5133 51.0547 87.4627 51.0561C87.3351 51.0528 87.2104 51.0966 87.1125 51.1798C87.0209 51.2518 86.9582 51.3553 86.9369 51.4708C86.9255 51.5224 86.9248 51.5758 86.9343 51.6278C86.9442 51.6794 86.9644 51.7288 86.9934 51.7726C87.0561 51.8576 87.1532 51.9014 87.2856 51.9014L87.2874 51.9018Z" fill="white"/>
<path d="M84.1608 52.9111C84.1722 52.8161 84.1531 52.7199 84.1066 52.6364C84.0747 52.6 84.0354 52.5707 83.9914 52.5506C83.9474 52.531 83.8998 52.5206 83.8514 52.5206C83.5943 52.5206 83.437 52.6468 83.378 52.8966C83.3652 52.9438 83.3622 52.9935 83.3699 53.0418C83.3773 53.0904 83.3949 53.1364 83.4213 53.1776C83.4737 53.2593 83.5665 53.3005 83.6915 53.3005C83.9445 53.3005 84.1025 53.1702 84.1608 52.9111Z" fill="white"/>
<path d="M82.7759 53.3072C83.0113 53.3016 83.1606 53.1717 83.2189 52.9193C83.231 52.8729 83.2332 52.8246 83.2258 52.7775C83.2185 52.7303 83.2013 52.6854 83.1756 52.6453C83.1499 52.6052 83.1144 52.5722 83.0722 52.5507C83.03 52.5288 82.9831 52.5184 82.9358 52.5206C82.8174 52.5161 82.7019 52.5566 82.6113 52.6338C82.5336 52.7047 82.4786 52.7975 82.4533 52.9003C82.4408 52.9493 82.439 53.0006 82.4481 53.0503C82.4577 53.1001 82.4778 53.1472 82.5075 53.188C82.535 53.2281 82.5721 53.2604 82.6153 53.282C82.6582 53.3035 82.7063 53.3131 82.7543 53.3109C82.7616 53.3113 82.769 53.3102 82.7759 53.3072Z" fill="white"/>
<path d="M81.7863 55.1874L81.6309 55.8648H100.594C100.625 56.0304 100.71 56.1803 100.836 56.2899C100.987 56.4172 101.178 56.484 101.374 56.4773C101.591 56.4751 101.802 56.4127 101.986 56.2965C102.166 56.1859 102.317 56.0341 102.428 55.8526H102.521L102.518 55.8648H105.357L106.5 50.8486L106.506 50.8178L106.48 50.8037C106.262 50.6912 106.104 50.4897 106.008 50.2009L105.961 50.0695L104.801 55.158H103.185V55.1569H102.597C102.562 54.9732 102.464 54.808 102.32 54.691C102.176 54.5741 101.995 54.5132 101.81 54.5192C101.592 54.521 101.378 54.5845 101.193 54.7029C101.008 54.8143 100.854 54.9702 100.743 55.1565L98.5368 55.1577L98.9845 53.1906L98.8873 53.2916C98.7813 53.4033 98.6695 53.5087 98.5518 53.6075C98.3597 53.7504 98.2148 53.8517 98.1199 53.9108L98.1074 53.9208L97.8236 55.1577H95.3776C95.4447 54.8109 95.3948 54.5203 95.2331 54.2916C95.052 54.0344 94.7531 53.9056 94.3538 53.9056H91.2482L92.0911 50.2228L92.0204 50.1916C91.8209 50.4574 91.5584 50.6675 91.2573 50.8022L91.2397 50.81L90.2479 55.1577H87.9962L88.6379 52.3435L88.577 52.3576C88.2228 52.4434 87.8774 52.5618 87.5448 52.7121C86.8317 53.0466 86.4148 53.4579 86.3044 53.9371L86.1504 54.6109H87.4088L87.2838 55.1577H83.7656L84.1242 53.5837L84.0633 53.6012C83.7077 53.6903 83.3604 53.8109 83.026 53.962C82.311 54.3028 81.8941 54.7144 81.7863 55.187M101.303 55.524C101.322 55.4431 101.369 55.3715 101.435 55.3221C101.495 55.2672 101.573 55.2364 101.655 55.2345C101.688 55.2323 101.72 55.2382 101.75 55.2516C101.78 55.2649 101.806 55.2854 101.826 55.311C101.847 55.3366 101.861 55.3667 101.868 55.3989C101.875 55.4312 101.873 55.4647 101.865 55.4966C101.845 55.5753 101.8 55.6454 101.737 55.6959C101.677 55.749 101.601 55.7783 101.521 55.7794C101.488 55.7813 101.455 55.7757 101.424 55.7627C101.393 55.7497 101.366 55.7297 101.344 55.7045C101.322 55.6803 101.307 55.6514 101.3 55.6194C101.293 55.5879 101.294 55.5549 101.303 55.524ZM91.0883 54.6112H94.209C94.3854 54.6112 94.5133 54.6569 94.5892 54.7456C94.6648 54.8343 94.689 54.9732 94.6648 55.158H90.9633L91.0883 54.6112ZM87.0282 53.9056C87.0685 53.7445 87.1664 53.6038 87.3028 53.5106C87.4392 53.4397 87.5727 53.3673 87.7065 53.296L87.5661 53.9056H87.0282ZM82.776 54.7686C82.9124 54.6962 83.0506 54.6209 83.191 54.5455L83.0477 55.158H82.5076C82.5442 54.998 82.6407 54.8588 82.776 54.7686Z" fill="white"/>
</g>
<defs>
<clipPath id="clip0_657_1420">
<rect width="110" height="71.8667" fill="white"/>
</clipPath>
</defs>
</svg>
