<svg width="110" height="72" viewBox="0 0 110 72" fill="none" xmlns="http://www.w3.org/2000/svg">
<g clip-path="url(#clip0_657_1502)">
<mask id="mask0_657_1502" style="mask-type:luminance" maskUnits="userSpaceOnUse" x="0" y="0" width="110" height="72">
<path d="M110 0H0V71.8667H110V0Z" fill="white"/>
</mask>
<g mask="url(#mask0_657_1502)">
<path d="M39.3531 4.50932L29.6343 3.71732L31.2183 1.81335L39.8844 2.43746L39.3531 4.50932Z" fill="#005C9F"/>
<path d="M23.1167 11.5488L37.0751 13.249L35.4261 19.6068L18.5405 17.0435L23.1167 11.5488Z" fill="#005C9F"/>
<path d="M30.0349 3.67794L21.9573 6.52782L18.0454 4.68771L25.9915 2.30261L30.0349 3.67794Z" fill="#005C9F"/>
<path d="M36.481 13.3505L44.1729 8.47565L52.2307 11.2087L45.3979 17.5392L36.481 13.3505Z" fill="#005C9F"/>
<path d="M22.1634 6.33844L23.4779 11.7565L13.6084 13.2103L14.4333 7.22896L22.1634 6.33844Z" fill="#005C9F"/>
<path d="M44.1753 8.70436L38.9961 4.40317L44.8052 3.73474L51.0712 7.68862L44.1753 8.70436Z" fill="#005C9F"/>
<path d="M40.1733 1.34126L32.0654 0.797445L32.7303 0L40.3941 0.481133L40.1733 1.34126Z" fill="#1AA9C1"/>
<path d="M14.3855 22.0361L33.8818 25.5514L31.9475 32.9896L9.34033 28.0978L14.3855 22.0361Z" fill="#1AA9C1"/>
<path d="M23.7188 1.53358L15.8944 3.67779L14.1685 2.86511L21.8719 0.907043L23.7188 1.53358Z" fill="#1AA9C1"/>
<path d="M52.7319 20.9838L58.5363 13.3504L65.1561 15.5962L60.7942 24.7741L52.7319 20.9838Z" fill="#1AA9C1"/>
<path d="M9.10796 7.84027L6.66021 14.2334L0 15.2164L4.08287 8.41817L9.10796 7.84027Z" fill="#1AA9C1"/>
<path d="M55.1733 7.0853L48.3057 3.33093L51.2962 2.98663L58.6387 6.57131L55.1733 7.0853Z" fill="#1AA9C1"/>
<path d="M41.5296 71.0835H40.8223L40.4271 70.2603H38.516L38.1204 71.0835H37.4277L38.9949 67.8282H39.9577L41.5296 71.0835ZM39.4598 68.2979L38.7719 69.7257H40.1711L39.488 68.2979H39.4598Z" fill="#131315"/>
<path d="M46.6123 69.5585C46.6123 70.6277 46.1279 71.0835 44.9007 71.0835H43.1011V67.8282H44.8915C46.1191 67.8282 46.6123 68.284 46.6123 69.3583V69.5585ZM43.7288 68.3632V70.5485H44.8075C45.7565 70.5485 45.9706 70.2002 45.9706 69.4932V69.4232C45.9706 68.7075 45.7565 68.3632 44.8075 68.3632H43.7288Z" fill="#131315"/>
<path d="M47.8538 71.0835H47.2261V67.8282H49.3604C49.7832 67.8282 50.0905 67.9074 50.2808 68.0607C50.4766 68.2139 50.5741 68.4794 50.5741 68.8648V68.9858C50.5741 69.6696 50.2298 70 49.3604 70H47.8538V71.0835ZM47.8538 68.358V69.4694H49.2486C49.8063 69.4694 49.9412 69.3213 49.9412 68.9396V68.8886C49.9412 68.4974 49.7931 68.358 49.2442 68.358H47.8538Z" fill="#131315"/>
<path d="M56.5126 71.0835H55.6616L54.7365 68.5905L53.8063 71.0835H52.9226L51.937 67.8286H52.6249L53.3879 70.4418H53.4202L54.383 67.8286H55.1079L56.0752 70.4418H56.1034L56.8613 67.8286H57.4986L56.5126 71.0835Z" fill="#131315"/>
<path d="M59.4792 71.13C58.252 71.13 57.75 70.6739 57.75 69.6047V69.3114C57.75 68.237 58.252 67.7816 59.4792 67.7816H59.7538C60.977 67.7816 61.4885 68.237 61.4885 69.3114V69.6047C61.4885 70.6739 60.977 71.1304 59.7538 71.1304L59.4792 71.13ZM59.7025 70.5859C60.6467 70.576 60.8417 70.2464 60.8417 69.5347V69.3766C60.8417 68.6653 60.6467 68.3349 59.7025 68.3258H59.5353C58.5871 68.3349 58.3913 68.6653 58.3913 69.3766V69.5347C58.3913 70.2464 58.5871 70.576 59.5353 70.5859H59.7025Z" fill="#131315"/>
<path d="M62.7254 71.0835H62.0977V67.8282H64.2782C65.1201 67.8282 65.4457 68.0607 65.4457 68.6605V68.7815C65.4457 69.2699 65.2646 69.4694 64.8598 69.5211V69.5442C65.2506 69.6095 65.4457 69.7209 65.4457 70.2834V71.0835H64.8132V70.3626C64.8132 69.9439 64.683 69.8507 64.0832 69.8507H62.7254V71.0835ZM62.7254 68.3632V69.3161H64.1671C64.6647 69.3161 64.8132 69.205 64.8132 68.8563V68.8285C64.8132 68.4611 64.6508 68.3632 64.074 68.3632H62.7254Z" fill="#131315"/>
<path d="M68.8499 71.0835H66.0874V67.8286H66.7155V70.5298H68.8499V71.0835Z" fill="#131315"/>
<path d="M72.8491 69.5585C72.8491 70.6277 72.3647 71.0835 71.1375 71.0835H69.3379V67.8282H71.1283C72.3559 67.8282 72.8491 68.284 72.8491 69.3583V69.5585ZM69.966 68.3632V70.5485H71.0444C71.9933 70.5485 72.2074 70.2002 72.2074 69.4932V69.4232C72.2074 68.7075 71.9933 68.3632 71.0444 68.3632H69.966Z" fill="#131315"/>
<path d="M76.2016 71.13C74.993 71.13 74.5186 70.6739 74.5186 69.6047V69.3069C74.5186 68.2377 74.993 67.782 76.2016 67.782H76.5088C77.0156 67.782 77.3969 67.8656 77.6525 68.0375C77.9077 68.2095 78.0756 68.4842 78.15 68.8655H77.504C77.3877 68.4889 77.1039 68.3258 76.4296 68.3258H76.2808C75.3604 68.3258 75.1602 68.6605 75.1602 69.377V69.5347C75.1602 70.2511 75.3604 70.5855 76.2808 70.5855H76.43C77.1039 70.5855 77.3881 70.4231 77.504 70.0469H78.15C78.076 70.4275 77.9088 70.7018 77.6525 70.8741C77.3962 71.0461 77.0156 71.13 76.5088 71.13H76.2016Z" fill="#131315"/>
<path d="M79.8891 71.13C79.0197 71.13 78.5684 70.7769 78.5684 69.916V69.7858C78.5684 68.9256 79.0241 68.5721 79.8939 68.5721H80.0563C80.926 68.5721 81.3723 68.9256 81.3723 69.7858V69.916C81.3723 70.7769 80.9213 71.13 80.0515 71.13H79.8891ZM80.7959 69.8929V69.8089C80.7959 69.172 80.4937 69.0649 79.9723 69.0649C79.4524 69.0649 79.1495 69.172 79.1495 69.8089V69.8929C79.1495 70.5298 79.4524 70.6368 79.9723 70.6368C80.4937 70.6368 80.7959 70.5298 80.7959 69.8929Z" fill="#131315"/>
<path d="M86.0793 71.0834H85.4985V69.6512C85.4985 69.1537 85.2469 69.0697 84.9118 69.0697C84.4982 69.0697 84.2379 69.2233 84.2379 69.7579V71.0834H83.6571V69.6512C83.6571 69.1537 83.4147 69.0697 83.0704 69.0697C82.6568 69.0697 82.3961 69.2233 82.3961 69.7579V71.0834H81.8149V68.6187H82.3961V69.0327H82.4192C82.5358 68.7492 82.7774 68.5721 83.2475 68.5721C83.6886 68.5721 84.019 68.6884 84.1638 69.0466H84.1869C84.3119 68.7492 84.5814 68.5721 85.079 68.5721C85.6745 68.5721 86.0793 68.7863 86.0793 69.5024V71.0834Z" fill="#131315"/>
<path d="M86.5586 68.6187H87.1346V69.0092H87.1533C87.2787 68.7353 87.5299 68.5721 88.0696 68.5721H88.1389C88.8554 68.5721 89.3621 68.8468 89.3621 69.7671V69.9299C89.3621 70.8557 88.8554 71.13 88.1389 71.13H88.0696C87.5299 71.13 87.2787 70.9672 87.1533 70.6929H87.1346V71.874H86.5586V68.6187ZM87.1346 69.8049V69.8929C87.1346 70.5298 87.4272 70.6368 87.9582 70.6368C88.4924 70.6368 88.7806 70.5298 88.7806 69.8929V69.8089C88.7806 69.172 88.4924 69.0649 87.9582 69.0649C87.4272 69.0649 87.1346 69.1768 87.1346 69.8049Z" fill="#131315"/>
<path d="M92.3288 71.0834H91.7521V70.6878H91.7334C91.6179 70.9533 91.3385 71.1304 90.7382 71.1304C90.0738 71.1304 89.7061 70.8741 89.7061 70.3673V70.3395C89.7061 69.8745 89.9712 69.6325 90.5479 69.6094L91.748 69.5585V69.5115C91.748 69.0836 91.5148 68.9956 91.0594 68.9956C90.6642 68.9956 90.4786 69.0888 90.3895 69.33H89.804C89.9202 68.8237 90.2737 68.5721 91.0547 68.5721H91.1339C91.9519 68.5721 92.3292 68.8094 92.3292 69.5585L92.3288 71.0834ZM90.2916 70.3442C90.2916 70.6185 90.5149 70.7248 90.9062 70.7248C91.4452 70.7248 91.748 70.5023 91.748 70.107V69.9438L90.7382 69.986C90.4273 69.9999 90.2916 70.0931 90.2916 70.3204V70.3442Z" fill="#131315"/>
<path d="M95.3193 71.0834H94.7425V69.6512C94.7425 69.1537 94.4723 69.0697 94.1056 69.0697C93.8823 69.0697 93.7052 69.1163 93.5751 69.2142C93.4497 69.3069 93.384 69.4884 93.384 69.7528V71.0834H92.8032V68.6187H93.384V69.0371H93.4071C93.5333 68.7632 93.7844 68.5721 94.2868 68.5721C94.8914 68.5721 95.3193 68.7815 95.3193 69.5346V71.0834Z" fill="#131315"/>
<path d="M96.849 71.874H96.2352L96.6399 71.0743L95.5103 68.6183H96.1332L96.9381 70.4143H96.9652L97.7469 68.6183H98.342L96.849 71.874Z" fill="#131315"/>
<path d="M81.0544 33.5293L81.2725 32.5292H68.7278L68.2372 34.5731H76.3255C75.7238 35.2313 64.8701 47.1728 64.8701 47.1728L64.6226 48.2926H78.2842L78.7257 46.3617C79.5397 47.8137 80.9576 48.6563 82.7759 48.6563C85.2545 48.6563 86.9548 47.2439 87.8861 46.2766C87.72 47.0243 87.43 48.2926 87.43 48.2926H90.3589L93.9731 32.5979L93.6824 32.5499C92.3785 32.3376 91.1465 32.1375 89.6501 32.1375C84.7911 32.1375 81.9905 34.3486 80.5003 36.2026C78.623 38.533 77.9542 41.2845 77.9542 43.0789C77.9542 44.268 78.1907 45.3094 78.6164 46.1597H69.541C70.1427 45.5022 81.0544 33.5293 81.0544 33.5293ZM88.9256 34.272C89.4983 34.274 90.07 34.3222 90.635 34.4162C90.5408 34.8298 88.5934 43.2472 88.5802 43.3059C88.4929 43.4467 87.7486 44.3538 87.5447 44.5614C86.3094 45.8242 85.0576 46.4603 83.8322 46.4603C82.1371 46.4603 81.0841 45.1532 81.0841 43.0496C81.0841 40.7077 82.9442 34.272 88.9256 34.272Z" fill="#131315"/>
<path d="M61.3144 48.2925C61.3144 48.2925 64.4369 34.8261 64.5091 34.5146H67.4645L67.9217 32.5292H64.9594C65.3991 30.3551 66.0579 27.7936 70.0095 27.8776L70.1775 27.883L70.473 26.6209L70.2827 26.5679C69.7048 26.4018 68.9898 26.1963 67.994 26.1963C64.8304 26.1963 63.452 28.3606 63.1066 29.0217C62.6732 29.7901 62.4173 30.7207 61.9531 32.5292H59.7461L59.2889 34.5146H61.4922C61.376 35.0025 58.3242 48.2925 58.3242 48.2925H61.3144Z" fill="#131315"/>
<path d="M54.29 32.1375C49.4302 32.1375 46.6304 34.3486 45.1399 36.2027C43.2603 38.533 42.5938 41.2845 42.5938 43.0789C42.5938 46.4669 44.4861 48.6563 47.4154 48.6563C49.8919 48.6563 51.5921 47.2439 52.5264 46.2766C52.3581 47.0242 52.0713 48.2925 52.0713 48.2925H54.9984L58.613 32.5979L58.3201 32.5499C57.0159 32.3376 55.7864 32.1375 54.29 32.1375ZM53.2219 43.3059C53.1306 43.4467 52.3911 44.3538 52.1832 44.5614C50.9453 45.8242 49.6975 46.4603 48.4681 46.4603C46.7748 46.4603 45.7247 45.1531 45.7247 43.0496C45.7247 40.7077 47.5819 34.272 53.5662 34.272C54.1386 34.2743 54.7099 34.3226 55.2745 34.4162C55.1781 34.8298 53.2329 43.2479 53.2219 43.3059Z" fill="#131315"/>
<path d="M41.1558 26.4842L36.1063 46.7734C35.5156 49.0779 34.7042 52.2342 31.3719 52.2342C29.2016 52.2342 28.3262 50.9604 27.7994 50.197L27.6541 49.9902L26.2197 50.593L26.3134 50.868C26.6833 51.9467 27.6656 54.8188 31.7327 54.8188C37.6534 54.8188 38.8187 49.7779 39.5172 46.7668L44.5731 26.4841H41.1558V26.4842Z" fill="#131315"/>
<path d="M70.0048 60.4465L70.1735 59.745L70.1127 59.6794L69.2286 59.6823L69.1212 59.7487L68.9492 60.4509L69.0277 60.5286L69.9022 60.5256L70.0048 60.4465Z" fill="#131315"/>
<path d="M65.8154 65.0225H66.8766L68.275 59.4249L67.1721 59.5782L65.8154 65.0225Z" fill="#131315"/>
<path d="M83.4366 63.0935C83.5414 62.6494 83.7229 61.8981 83.3009 61.3258C82.9331 60.833 82.3142 60.7776 81.9662 60.7776C80.5263 60.7776 79.5264 61.746 79.2294 62.9347C78.9185 64.1799 79.4351 65.1879 80.8945 65.1879C82.2904 65.1879 82.8239 64.3544 83.1084 63.9115L82.8785 63.785C82.5111 64.1414 82.1254 64.5143 81.3887 64.5143C80.1351 64.5143 80.2792 63.3956 80.3162 63.0935H83.4366ZM81.7737 61.4438C82.5654 61.4438 82.4869 62.1123 82.4429 62.4767H80.4941C80.6972 62.0716 81.0122 61.4438 81.7737 61.4438Z" fill="#131315"/>
<path d="M67.7954 65.0224H68.8521L69.8649 60.9612H68.8107L67.7954 65.0224Z" fill="#131315"/>
<path d="M76.9207 60.9613L75.9102 65.0225H76.9709L77.7563 61.8739C77.9686 61.7547 78.2462 61.5963 78.6341 61.5963C78.9267 61.5963 79.1112 61.6913 79.2857 61.7863L79.5156 60.8667C79.4181 60.8498 79.3191 60.8417 79.2201 60.8421C78.4985 60.8421 78.0673 61.2631 77.8575 61.4691L77.984 60.9613H76.9207Z" fill="#131315"/>
<path d="M55.6785 63.0935C55.7812 62.6494 55.9609 61.8981 55.5403 61.3258C55.1689 60.833 54.5521 60.7776 54.2016 60.7776C52.7668 60.7776 51.7647 61.746 51.4674 62.9347C51.1583 64.1799 51.6749 65.1879 53.1361 65.1879C54.5301 65.1879 55.0611 64.3544 55.3482 63.9115L55.1183 63.785C54.7534 64.1414 54.3659 64.5143 53.6267 64.5143C52.3749 64.5143 52.519 63.3956 52.5542 63.0935H55.6785ZM54.0135 61.4438C54.8055 61.4438 54.727 62.1123 54.6834 62.4767H52.7338C52.937 62.0716 53.2501 61.4438 54.0135 61.4438Z" fill="#131315"/>
<path d="M46.103 63.0935C46.206 62.6494 46.3835 61.8981 45.9655 61.3258C45.5951 60.833 44.9758 60.7776 44.6242 60.7776C43.1887 60.7776 42.1888 61.746 41.8914 62.9347C41.5805 64.1799 42.0986 65.1879 43.5579 65.1879C44.9542 65.1879 45.4862 64.3544 45.7704 63.9115L45.5405 63.785C45.1753 64.1414 44.7863 64.5143 44.0507 64.5143C42.7971 64.5143 42.9412 63.3956 42.9764 63.0935H46.103ZM44.4357 61.4438C45.2277 61.4438 45.1493 62.1123 45.1078 62.4767H43.1557C43.3588 62.0716 43.6742 61.4438 44.4357 61.4438Z" fill="#131315"/>
<path d="M57.2604 59.5778L55.9048 65.0221H56.9655L58.3607 59.4246L57.2604 59.5778Z" fill="#131315"/>
<path d="M63.9058 63.785L64.1504 65.0225H65.356L64.1808 59.4249L63.6836 59.5782L59.7412 65.0225H60.7268L61.5888 63.785H63.9058ZM63.3675 61.2322L63.7456 63.048H62.1051L63.3675 61.2322Z" fill="#131315"/>
<path d="M47.6847 59.5775L46.3262 65.0225H47.3895L47.494 64.5997C47.586 64.7676 47.8328 65.2036 48.5254 65.2036C49.3185 65.2036 50.4783 64.5858 50.8879 62.9523C51.1999 61.6913 50.7801 60.7955 49.6951 60.7955C48.9273 60.7955 48.4961 61.2157 48.286 61.4214L48.785 59.4242L47.6847 59.5775ZM49.1462 61.4438C49.551 61.4438 49.7523 61.6744 49.833 61.9997C49.9096 62.3179 49.8414 62.6809 49.7783 62.9446C49.4461 64.2767 48.7583 64.5542 48.3476 64.5542C47.8944 64.5542 47.7265 64.2693 47.6238 64.0864L48.1507 61.9755C48.1507 61.9692 48.5331 61.4438 49.1462 61.4438Z" fill="#131315"/>
<path d="M73.508 59.5778L72.1514 65.0221H73.2781L73.9033 62.5009H75.9497L76.1462 61.7144H74.1002L74.4812 60.185H76.8436L77.039 59.4161H73.6697L73.508 59.5778Z" fill="#131315"/>
<path d="M97.7445 65.1878C99.2346 65.1878 100.164 64.1021 100.446 62.968C100.817 61.494 99.9525 60.7776 98.8716 60.7952C97.9483 60.8106 96.6441 61.3969 96.2419 63.0095C95.9141 64.324 96.5084 65.1878 97.7445 65.1878ZM97.3661 62.9765C97.5868 62.0957 98.0752 61.4438 98.7249 61.4438C99.4143 61.4438 99.5364 62.1276 99.3138 63.0315C99.1052 63.8623 98.6157 64.5447 97.9531 64.5447C97.2942 64.5447 97.1409 63.8957 97.3661 62.9765Z" fill="#131315"/>
<path d="M109.872 63.0935C109.975 62.6494 110.155 61.8981 109.734 61.3258C109.364 60.833 108.745 60.7776 108.396 60.7776C106.962 60.7776 105.961 61.746 105.665 62.9347C105.355 64.1799 105.87 65.1879 107.33 65.1879C108.723 65.1879 109.257 64.3544 109.541 63.9115L109.312 63.785C108.947 64.1414 108.56 64.5143 107.824 64.5143C106.571 64.5143 106.713 63.3956 106.749 63.0935H109.872ZM108.207 61.4438C109 61.4438 108.92 62.1123 108.877 62.4767H106.927C107.133 62.0716 107.446 61.4438 108.207 61.4438Z" fill="#131315"/>
<path d="M38.8085 65.1878C39.3262 65.193 39.8304 65.0228 40.2392 64.7049C40.7445 64.3005 40.9021 63.8561 41.0444 63.2779L42.0051 59.4249L40.8409 59.5782L39.9965 62.9603C39.8439 63.5796 39.7295 63.8807 39.5147 64.1344C39.412 64.2598 39.2829 64.361 39.1366 64.4307C38.9907 64.5007 38.8308 64.5374 38.6684 64.5381C38.547 64.5407 38.4268 64.5146 38.3171 64.4622C38.2075 64.4098 38.1118 64.332 38.0377 64.236C37.9589 64.126 37.901 64.0024 37.8676 63.8715L37.5244 64.0064C37.5391 64.214 37.5504 64.5047 37.7605 64.7603C37.9483 65.0137 38.2981 65.1878 38.8085 65.1878Z" fill="#131315"/>
<path d="M101.701 60.9613L100.688 65.0225H101.74L102.495 61.9997C102.731 61.7954 103.064 61.5014 103.5 61.5014C103.882 61.5014 104.02 61.7459 104.026 61.9755C104.024 62.1159 104.001 62.2552 103.959 62.3891L103.302 65.0225H104.367L105.05 62.2791C105.134 61.937 105.215 61.5325 104.991 61.2157C104.834 60.9943 104.527 60.8421 104.109 60.8421C103.339 60.8421 102.889 61.2546 102.622 61.4944L102.757 60.9613H101.701Z" fill="#131315"/>
<path d="M90.4834 65.0225H95.334L95.5309 64.236H92.3252L96.5968 59.7018L96.6661 59.4249H92.2317L92.0784 59.5782L91.9207 60.2015H94.8394L90.5424 64.7764L90.4834 65.0225Z" fill="#131315"/>
<path d="M88.2277 63.0935C88.3311 62.6494 88.5074 61.8981 88.0902 61.3258C87.7206 60.833 87.0987 60.7776 86.7515 60.7776C85.316 60.7776 84.3117 61.746 84.0183 62.9347C83.7074 64.1799 84.2262 65.1879 85.6834 65.1879C87.0793 65.1879 87.6117 64.3544 87.8955 63.9115L87.6674 63.785C87.3026 64.1414 86.9157 64.5143 86.1776 64.5143C84.924 64.5143 85.0688 63.3956 85.1011 63.0935H88.2277ZM86.563 61.4438C87.3532 61.4438 87.2765 62.1123 87.2351 62.4767H85.283C85.4861 62.0716 85.7992 61.4438 86.563 61.4438Z" fill="#131315"/>
<path d="M69.6269 52.9166C69.6394 52.8217 69.621 52.7252 69.5741 52.6416C69.5415 52.6057 69.5015 52.5771 69.4571 52.5573C69.4128 52.5371 69.3647 52.5269 69.3163 52.5261C69.0534 52.5261 68.8917 52.6523 68.8345 52.902C68.8221 52.9496 68.8195 52.9988 68.8268 53.0472C68.8345 53.0956 68.8521 53.1418 68.8782 53.1832C68.931 53.2646 69.0248 53.306 69.1521 53.306C69.408 53.306 69.5679 53.1759 69.6269 52.9166Z" fill="#131315"/>
<path d="M79.2515 55.8705H79.9753L81.3103 50.0925L81.2095 50.1915C81.1328 50.2718 80.9928 50.398 80.7999 50.5652C80.7148 50.6271 80.5902 50.7118 80.4325 50.8108L80.4193 50.82L79.2639 55.8213L79.2515 55.8705Z" fill="#131315"/>
<path d="M39.4581 57.5421C39.3775 57.6169 39.321 57.7144 39.2961 57.8215C39.2818 57.8706 39.2785 57.9223 39.2865 57.9733C39.2946 58.0239 39.3137 58.0723 39.3423 58.1145C39.4013 58.1984 39.4992 58.2424 39.633 58.2424C39.7529 58.2472 39.8699 58.2087 39.9638 58.1343C40.0573 58.0598 40.1211 57.9542 40.1434 57.8365C40.1607 57.7372 40.1412 57.6349 40.0881 57.5491C40.0547 57.5065 40.0118 57.4728 39.963 57.4497C39.9139 57.427 39.8604 57.4156 39.8065 57.4171C39.6785 57.4119 39.5535 57.457 39.4581 57.5425" fill="#131315"/>
<path d="M42.4705 53.2866C42.1086 53.3709 41.7551 53.4901 41.416 53.6419C40.6878 53.9777 40.2635 54.395 40.1517 54.8808L39.9346 55.8202C39.8081 56.2914 39.6068 56.5441 39.3289 56.5683C39.1712 56.5848 38.9267 56.4825 38.5981 56.2713L38.4995 56.2064L38.5387 56.3189C38.7096 56.7761 38.9443 57.0079 39.2416 57.0079H39.2523C39.5947 57.0116 39.9266 56.8887 40.1847 56.6632C40.4238 56.445 40.5873 56.1565 40.6526 55.8397L40.8715 54.8984C40.8898 54.7749 40.9459 54.6594 41.0313 54.5681C41.1468 54.4625 41.2781 54.3752 41.42 54.3092C41.4728 54.2828 41.5278 54.2557 41.5868 54.2293L41.2084 55.8697H49.2032L49.3653 55.1632H48.0438C47.9709 55.1632 47.9078 55.1228 47.8528 55.0396C47.7971 54.9619 47.7743 54.8651 47.7897 54.7708C47.8059 54.6462 47.8627 54.5303 47.9514 54.4416C47.9896 54.3998 48.0358 54.3668 48.0875 54.344C48.1392 54.3213 48.1949 54.3099 48.2514 54.3103H49.564L49.7239 53.6045H48.3955C48.2297 53.603 48.0655 53.6342 47.9118 53.6965C47.7582 53.7588 47.6185 53.8509 47.5008 53.9678C47.2834 54.1677 47.1382 54.4339 47.0876 54.725C47.0524 54.9241 47.0762 55.0693 47.1642 55.1632H45.09L46.0917 50.8222L46.0657 50.8083C45.8424 50.6957 45.6799 50.4944 45.5846 50.2062L45.5402 50.0746L44.3654 55.1632H42.0965L42.5321 53.2701L42.4705 53.2866ZM39.2416 56.9686V56.9664H39.2424L39.2416 56.9686Z" fill="#131315"/>
<path d="M59.897 56.2192C59.8218 56.2892 59.7701 56.3805 59.7485 56.4806C59.7177 56.6141 59.7283 56.7168 59.7833 56.7868C59.8354 56.8506 59.923 56.8836 60.0436 56.8836H60.0612C60.1815 56.8821 60.2977 56.8389 60.3898 56.7611C60.4664 56.6984 60.5181 56.6104 60.5357 56.5129C60.5599 56.3816 60.5449 56.2812 60.488 56.213C60.4327 56.1466 60.3428 56.1151 60.2163 56.1151C60.1005 56.1088 59.9868 56.1459 59.897 56.2192Z" fill="#131315"/>
<path d="M67.2238 55.1928L67.0669 55.8704H69.0638L69.5914 53.5894L69.5258 53.607C69.1664 53.6965 68.8159 53.8171 68.4775 53.9678C67.7555 54.3073 67.3316 54.7202 67.2238 55.1928ZM68.2215 54.7745C68.3638 54.7019 68.5013 54.6267 68.6436 54.5512L68.5013 55.1639H67.9553C67.992 55.0051 68.087 54.8661 68.2215 54.7745Z" fill="#131315"/>
<path d="M55.1226 50.1926C55.0148 50.3173 54.8971 50.4328 54.771 50.5381C54.5719 50.6745 54.434 50.7639 54.3486 50.8086L54.331 50.8175L53.1778 55.8199C53.0531 56.2914 52.85 56.5437 52.5735 56.5683C52.4162 56.5844 52.1717 56.4825 51.8439 56.2713L51.7427 56.206L51.7815 56.3185C51.9528 56.7714 52.1911 57.0024 52.4866 57.0024H52.4973C52.8372 57.0038 53.1664 56.8817 53.4235 56.6588C53.6508 56.4436 53.8121 56.1682 53.8888 55.865L54.031 55.8661V55.8705H64.3795L65.537 50.8541L65.5433 50.8229L65.5176 50.809C65.2969 50.6964 65.137 50.4955 65.038 50.2062L64.9944 50.075L63.8174 55.1639H61.4876C61.3303 55.1639 61.2298 55.1346 61.192 55.0792C61.1246 54.9667 61.0875 54.795 61.0824 54.5725C61.0941 54.4276 61.0615 54.2824 60.9889 54.1563C60.9541 54.0932 60.906 54.0386 60.8477 53.9964C60.7894 53.9539 60.7227 53.925 60.6519 53.9114H60.037L59.875 54.6169H60.2691C60.3428 54.6169 60.3758 54.7393 60.3916 54.8402C60.4026 54.9494 60.4224 55.0576 60.4506 55.1639H57.2581L57.7131 53.1967L57.6148 53.2976C57.507 53.409 57.393 53.5147 57.2735 53.6133C57.0788 53.7563 56.9347 53.8578 56.836 53.9169L56.8203 53.9264L56.5361 55.1639H54.0549L55.2282 50.0819L55.1226 50.1926ZM52.4866 56.9632V56.9613H52.4874L52.4866 56.9632Z" fill="#131315"/>
<path d="M56.5805 56.3603C56.4515 56.3585 56.3268 56.4047 56.2307 56.4905C56.1435 56.5627 56.0837 56.6628 56.0617 56.7739C56.0503 56.8242 56.0492 56.8759 56.0584 56.9265C56.0676 56.9771 56.0866 57.0251 56.1145 57.0684C56.1691 57.1589 56.27 57.2029 56.4056 57.2029H56.41C56.6806 57.1673 56.8405 57.0299 56.8819 56.789C56.9032 56.6903 56.8867 56.5877 56.8365 56.5004C56.8112 56.4553 56.7738 56.4182 56.7287 56.3933C56.6832 56.3687 56.6319 56.3574 56.5802 56.3603" fill="#131315"/>
<path d="M68.2241 53.3126C68.4643 53.3071 68.6157 53.1769 68.6729 52.9246C68.6861 52.8788 68.689 52.8304 68.6817 52.7831C68.6747 52.7362 68.6575 52.6911 68.6315 52.6507C68.6051 52.6108 68.5684 52.5781 68.5255 52.5561C68.4826 52.5345 68.4346 52.5239 68.3865 52.5261C68.267 52.5217 68.1508 52.562 68.0598 52.6394C67.9795 52.709 67.9238 52.8022 67.9003 52.9059C67.8875 52.9547 67.8857 53.006 67.8952 53.0559C67.9044 53.1058 67.9249 53.1527 67.955 53.1934C67.9821 53.2334 68.0191 53.2656 68.0624 53.2873C68.1057 53.3089 68.1537 53.3188 68.2021 53.3162C68.2094 53.3173 68.2171 53.3159 68.2241 53.3126Z" fill="#131315"/>
<path d="M71.9304 54.2436C71.8219 54.3712 71.7034 54.4896 71.5758 54.5982C71.3786 54.7269 71.2389 54.8134 71.1534 54.8596L71.1377 54.868L70.9195 55.8202C70.7923 56.2914 70.5913 56.5441 70.313 56.5683C70.1561 56.5848 69.9108 56.4825 69.5823 56.2716L69.4814 56.2064L69.5232 56.3189C69.6941 56.7714 69.9328 57.0027 70.2302 57.0027H70.2404C70.58 57.0042 70.9081 56.8821 71.1637 56.6588C71.3925 56.4443 71.5549 56.1689 71.6323 55.8653L71.7727 55.8664L71.7702 55.8708H78.6987L79.8588 50.8541L79.8633 50.8229L79.8346 50.809C79.6179 50.6964 79.4562 50.4951 79.3576 50.2062L79.3121 50.075L78.137 55.1639H75.8072C75.6495 55.1639 75.5465 55.1346 75.5113 55.0792C75.4431 54.9692 75.4068 54.795 75.402 54.5725C75.4115 54.4273 75.3782 54.2824 75.3059 54.1563C75.2726 54.0929 75.2249 54.0375 75.167 53.995C75.109 53.9524 75.0419 53.9239 74.9712 53.9114H74.3563L74.1946 54.6169H74.5887C74.6602 54.6169 74.6958 54.7393 74.7108 54.8402C74.7229 54.9491 74.742 55.0572 74.768 55.1639H71.794L71.9979 54.2806L71.9304 54.2436ZM70.2302 56.9632V56.9613H70.2309L70.2302 56.9632Z" fill="#131315"/>
<path d="M38.2861 57.8207C38.2714 57.8721 38.2696 57.9263 38.2802 57.9784C38.2908 58.0308 38.3139 58.0796 38.3473 58.1214C38.3785 58.1614 38.4188 58.1929 38.465 58.2142C38.5112 58.2351 38.5614 58.2446 38.612 58.2417H38.6333C38.8936 58.2369 39.0579 58.0998 39.1195 57.8372C39.132 57.7881 39.1342 57.7371 39.1257 57.6869C39.1169 57.637 39.0979 57.5897 39.0696 57.5476C39.0407 57.5047 39.0011 57.4698 38.9549 57.4467C38.9083 57.424 38.8566 57.4134 38.8049 57.4163C38.5226 57.4163 38.3477 57.5527 38.2861 57.8207Z" fill="#131315"/>
<path d="M89.7223 51.7762C89.8078 51.7011 89.8653 51.5991 89.8862 51.4873C89.8976 51.4352 89.898 51.3817 89.8873 51.3293C89.8771 51.2772 89.8558 51.2277 89.8254 51.1844C89.7924 51.143 89.7498 51.11 89.7014 51.0887C89.653 51.0675 89.6002 51.0579 89.5471 51.0612C89.4231 51.0565 89.3018 51.099 89.2075 51.18C89.121 51.2563 89.0605 51.3582 89.0356 51.4708C89.0194 51.5207 89.015 51.5735 89.0227 51.6252C89.0304 51.6769 89.0499 51.7264 89.0792 51.7693C89.1338 51.8503 89.2343 51.8917 89.3744 51.8917C89.5005 51.8976 89.6244 51.8562 89.7223 51.7762Z" fill="#131315"/>
<path d="M99.8978 52.7956C100.182 52.789 100.35 52.657 100.399 52.4014C100.423 52.2617 100.405 52.1546 100.346 52.082C100.289 52.0146 100.195 51.9783 100.068 51.9783C99.79 51.9783 99.6198 52.1121 99.5608 52.3699C99.5472 52.4205 99.5447 52.4736 99.5535 52.5253C99.5619 52.577 99.5817 52.6262 99.611 52.6698C99.6411 52.712 99.6814 52.7457 99.728 52.7677C99.7746 52.7897 99.8263 52.7992 99.8776 52.7956H99.8978Z" fill="#131315"/>
<path d="M107.227 55.8705H107.946L109.282 50.0936L109.183 50.1915C109.104 50.2729 108.964 50.398 108.774 50.5652C108.686 50.6271 108.564 50.7118 108.407 50.8108L108.394 50.82L107.238 55.8213L107.227 55.8705Z" fill="#131315"/>
<path d="M88.3788 51.9072H88.3828C88.525 51.8892 88.6303 51.8492 88.7021 51.7829C88.7865 51.7055 88.8433 51.6028 88.8642 51.4903C88.8818 51.3876 88.8675 51.2816 88.8228 51.1874C88.7912 51.1467 88.7509 51.1144 88.7047 51.0924C88.6582 51.0704 88.6075 51.0598 88.5562 51.0613C88.4268 51.058 88.301 51.102 88.2017 51.1848C88.1089 51.2571 88.0454 51.3608 88.0238 51.4763C88.0124 51.5277 88.0117 51.5812 88.0213 51.6329C88.0312 51.685 88.0517 51.7341 88.081 51.7781C88.1445 51.8632 88.2431 51.9068 88.3769 51.9068L88.3788 51.9072Z" fill="#131315"/>
<path d="M85.213 52.9166C85.2248 52.8217 85.2053 52.7252 85.1584 52.6416C85.1258 52.6053 85.0862 52.5764 85.0414 52.5562C84.9971 52.5364 84.9487 52.5261 84.8999 52.5261C84.6396 52.5261 84.4801 52.6523 84.4207 52.902C84.4075 52.9493 84.4049 52.9988 84.4122 53.0475C84.4199 53.0959 84.4375 53.1421 84.4643 53.1832C84.5175 53.2646 84.6117 53.306 84.7382 53.306C84.9941 53.306 85.154 53.1759 85.213 52.9166Z" fill="#131315"/>
<path d="M83.8106 53.3126C84.0493 53.3071 84.2 53.1769 84.2591 52.9246C84.2715 52.8784 84.2737 52.8304 84.2664 52.7831C84.2587 52.7358 84.2415 52.6907 84.2154 52.6507C84.1894 52.6104 84.1535 52.5778 84.1106 52.5558C84.068 52.5341 84.0204 52.5239 83.9727 52.5261C83.8528 52.5217 83.7358 52.562 83.6442 52.6394C83.5653 52.7101 83.5096 52.8029 83.4843 52.9059C83.4715 52.9547 83.4696 53.006 83.4792 53.0559C83.4883 53.1054 83.5089 53.1527 83.5389 53.1934C83.5668 53.2334 83.6042 53.2656 83.6478 53.2873C83.6918 53.3089 83.7402 53.3188 83.789 53.3162C83.7963 53.317 83.8037 53.3155 83.8106 53.3126Z" fill="#131315"/>
<path d="M82.809 55.1929L82.6514 55.8705H101.852C101.883 56.0362 101.969 56.1862 102.097 56.2958C102.249 56.423 102.443 56.4898 102.642 56.4832C102.861 56.481 103.075 56.4187 103.261 56.3024C103.443 56.1921 103.597 56.0399 103.709 55.8584H103.803L103.799 55.8705H106.674L107.831 50.8541L107.838 50.8229L107.811 50.809C107.59 50.6964 107.43 50.4951 107.333 50.2062L107.286 50.075L106.111 55.1639H104.475V55.1625H103.88C103.845 54.9788 103.745 54.8137 103.599 54.6968C103.453 54.5798 103.27 54.519 103.084 54.5252C102.862 54.5267 102.645 54.5901 102.458 54.7085C102.271 54.82 102.115 54.9758 102.003 55.1625L99.7688 55.1635L100.222 53.1964L100.123 53.2972C100.017 53.4091 99.903 53.5143 99.7842 53.6129C99.5895 53.7559 99.4429 53.8575 99.3468 53.9165L99.334 53.9264L99.0469 55.1635H96.57C96.6379 54.8167 96.5876 54.5259 96.4237 54.2975C96.24 54.0401 95.9379 53.911 95.5335 53.911H92.3889L93.2425 50.2278L93.1707 50.197C92.969 50.4625 92.7032 50.6726 92.3981 50.8076L92.3805 50.8156L91.3762 55.1635H89.0963L89.746 52.349L89.6844 52.3629C89.3258 52.4487 88.976 52.5675 88.6394 52.7175C87.9174 53.0523 87.4954 53.4633 87.3832 53.9429L87.2277 54.6169H88.5015L88.375 55.1635H84.8129L85.1759 53.5895L85.1146 53.607C84.7542 53.6958 84.4029 53.8164 84.0641 53.9675C83.34 54.3081 82.9179 54.7199 82.809 55.1929ZM102.569 55.5298C102.589 55.4488 102.636 55.3773 102.703 55.3278C102.765 55.2732 102.843 55.242 102.926 55.2402C102.959 55.238 102.992 55.2442 103.022 55.2574C103.052 55.2706 103.079 55.2911 103.1 55.3164C103.12 55.3421 103.134 55.3726 103.141 55.4048C103.148 55.4371 103.147 55.4704 103.138 55.5023C103.118 55.5812 103.073 55.6512 103.009 55.7018C102.948 55.7546 102.871 55.7843 102.79 55.7851C102.756 55.7873 102.723 55.7814 102.692 55.7685C102.661 55.7553 102.633 55.7355 102.611 55.7102C102.589 55.6864 102.574 55.6571 102.567 55.6256C102.559 55.5937 102.56 55.561 102.569 55.5298ZM92.2272 54.6169H95.3868C95.5654 54.6169 95.6952 54.6627 95.7718 54.7514C95.8484 54.8401 95.8726 54.9787 95.8484 55.1639H92.1007L92.2272 54.6169ZM88.1165 53.9114C88.1572 53.7501 88.2562 53.6093 88.3945 53.5165C88.5323 53.445 88.6676 53.3728 88.8033 53.3016L88.661 53.911L88.1165 53.9114ZM83.8108 54.7745C83.949 54.7019 84.0891 54.6267 84.2313 54.5512L84.0858 55.1639H83.5391C83.5765 55.004 83.6736 54.8647 83.8108 54.7745Z" fill="#131315"/>
</g>
</g>
<defs>
<clipPath id="clip0_657_1502">
<rect width="110" height="71.8667" fill="white"/>
</clipPath>
</defs>
</svg>
