<svg xmlns="http://www.w3.org/2000/svg" viewBox="0 0 60 60"><defs><style>.cls-1{fill:#c6c6c5;opacity:0;}.cls-2{fill:#00263a;}</style></defs><g id="Layer_2" data-name="Layer 2"><g id="Layer_1-2" data-name="Layer 1"><rect class="cls-1" width="60" height="60"/><path class="cls-2" d="M47,12H13a7,7,0,0,0-7,7V41a7,7,0,0,0,6.7,7V44A3,3,0,0,1,10,41V28.81H50V41a3,3,0,0,1-3,3H15.25l-2.54,4H47a7,7,0,0,0,7-7V19A7,7,0,0,0,47,12Zm3,12.81H10V23.37H50Zm0-5.44H10V19a3,3,0,0,1,3-3H47a3,3,0,0,1,3,3Z"/><rect class="cls-2" x="14.7" y="32.68" width="7.65" height="8"/></g></g></svg>