<?xml version="1.0" encoding="utf-8"?>
<!-- Generator: Adobe Illustrator 25.4.1, SVG Export Plug-In . SVG Version: 6.00 Build 0)  -->
<svg version="1.1" id="Layer_1" xmlns="http://www.w3.org/2000/svg" xmlns:xlink="http://www.w3.org/1999/xlink" x="0px" y="0px"
	 viewBox="0 0 80 80" style="enable-background:new 0 0 80 80;" xml:space="preserve">
<style type="text/css">
	.st0{fill:url(#SVGID_1_);}
	.st1{fill:url(#SVGID_00000124883903462801655600000004503841096283277197_);}
	.st2{fill:url(#SVGID_00000018205447411813395430000005805067369300582060_);}
</style>
<g id="Layer_2_00000016794490448720212550000005044626573496652697_">
	<g id="Layer_1-2">
		<g id="dollar">
			
				<linearGradient id="SVGID_1_" gradientUnits="userSpaceOnUse" x1="4.6148" y1="40.99" x2="75.3852" y2="40.99" gradientTransform="matrix(1 0 0 -1 0 81.99)">
				<stop  offset="0" style="stop-color:#1E6C8E"/>
				<stop  offset="1" style="stop-color:#2E7775"/>
			</linearGradient>
			<path class="st0" d="M62.1,22.9H6.5c-1.1,0-1.9,0.9-1.9,1.9v32.4c0,1.1,0.9,1.9,1.9,1.9h66.9c1.1,0,1.9-0.9,1.9-1.9V24.8
				c0-1.1-0.9-1.9-1.9-1.9H62.1z M73.5,57.2H6.5V24.8h66.9V57.2z"/>
			
				<linearGradient id="SVGID_00000046325843086000435690000002165223329716620986_" gradientUnits="userSpaceOnUse" x1="9.4353" y1="40.9944" x2="70.5647" y2="40.9944" gradientTransform="matrix(1 0 0 -1 0 81.99)">
				<stop  offset="0" style="stop-color:#1E6C8E"/>
				<stop  offset="1" style="stop-color:#2E7775"/>
			</linearGradient>
			<path style="fill:url(#SVGID_00000046325843086000435690000002165223329716620986_);" d="M52.3,28.1h-6.5
				c-0.3-0.2-0.6-0.3-0.9-0.4c-3.1-1.5-6.7-1.5-9.8,0c-0.3,0.1-0.6,0.3-0.9,0.4H16.3c0,3.8-3.1,6.9-6.9,6.9v11.9
				c3.8,0,6.9,3.1,6.9,6.9h17.9c0.3,0.2,0.6,0.3,0.9,0.4c3.1,1.5,6.7,1.5,9.8,0c0.3-0.1,0.6-0.3,0.9-0.4h17.9c0-3.8,3.1-6.9,6.9-6.9
				V35.1c-3.8,0-6.9-3.1-6.9-6.9L52.3,28.1L52.3,28.1z M27.7,51.9h-9.7c-0.8-3.4-3.4-6-6.7-6.7v-8.4c3.4-0.8,6-3.4,6.7-6.7h13.7
				c-2.9,2.9-4.5,6.8-4.4,10.9c-0.1,4.1,1.5,8,4.4,10.9H27.7z M44.5,53.4c-2.8,1.3-6.1,1.3-8.9,0c-4.4-2.1-7.2-7-7.2-12.4
				s2.8-10.4,7.2-12.4c2.8-1.4,6.1-1.4,8.9,0c4.4,2.1,7.2,7,7.2,12.4S48.9,51.4,44.5,53.4z M68.7,36.8v8.4c-3.4,0.8-6,3.4-6.7,6.7
				H48.3c2.9-2.9,4.5-6.8,4.4-10.9c0.1-4.1-1.5-8-4.4-10.9h13.7C62.7,33.4,65.3,36,68.7,36.8z"/>
			
				<linearGradient id="SVGID_00000049901109955024448250000011529567868475910324_" gradientUnits="userSpaceOnUse" x1="34.5904" y1="41.0332" x2="45.4236" y2="41.0332" gradientTransform="matrix(1 0 0 -1 0 81.99)">
				<stop  offset="0" style="stop-color:#1E6C8E"/>
				<stop  offset="1" style="stop-color:#2E7775"/>
			</linearGradient>
			<path style="fill:url(#SVGID_00000049901109955024448250000011529567868475910324_);" d="M43.6,40.4c-0.7-0.6-1.6-1.1-2.4-1.4
				c-0.7-0.2-1.3-0.6-1.9-1c-0.1-0.1-0.2-0.2-0.3-0.3C39,37.5,39,37.4,39,37.3c0-0.2,0.1-0.4,0.2-0.6c0.3-0.3,0.7-0.4,1.2-0.3
				c0.5,0,1,0.1,1.5,0.2c0.3,0.1,0.6,0.2,0.9,0.4l0.6,0.3c0.2,0.1,0.5,0,0.7-0.2c0,0,0,0,0-0.1l1-2.6c0.1-0.2,0-0.5-0.2-0.6
				l-0.4-0.2c-0.8-0.4-1.6-0.7-2.5-0.9V31c0-0.3-0.2-0.5-0.5-0.5l0,0h-2.6c-0.3,0-0.5,0.2-0.5,0.5c0,0,0,0,0,0V33
				c-0.9,0.3-1.6,0.7-2.3,1.4c-0.8,0.9-1.2,2-1.1,3.1c0,0.6,0.1,1.2,0.3,1.7c0.4,0.8,0.9,1.5,1.7,1.9c0.8,0.5,1.6,0.9,2.5,1.3
				c0.6,0.2,1.1,0.5,1.6,0.9c0.1,0.1,0.2,0.2,0.3,0.4c0.1,0.2,0.1,0.3,0.1,0.5c0,0.3-0.1,0.7-0.4,0.9c-0.4,0.3-0.8,0.4-1.3,0.4l0,0
				c-1,0-1.9-0.3-2.7-0.9l-0.6-0.4c-0.1-0.1-0.3-0.1-0.4-0.1c-0.1,0-0.3,0.2-0.3,0.3l-0.9,2.6c-0.1,0.2,0,0.4,0.2,0.6l0.3,0.3
				c0.6,0.4,1.2,0.7,1.9,0.9c0.4,0.1,0.8,0.2,1.2,0.3V51c0,0.3,0.2,0.5,0.5,0.5c0,0,0,0,0,0h2.6c0.3,0,0.5-0.2,0.5-0.5v-2
				c0.9-0.3,1.8-0.8,2.5-1.6l0,0c0.8-0.9,1.2-2,1.2-3.2c0-0.6-0.1-1.2-0.3-1.7C44.9,41.6,44.3,40.9,43.6,40.4z M43.5,46.7
				c-0.6,0.7-1.4,1.2-2.3,1.4c-0.2,0.1-0.4,0.2-0.4,0.5v2h-1.6v-1.9c0-0.3-0.2-0.5-0.4-0.5c-0.5-0.1-1-0.1-1.5-0.3
				c-0.6-0.2-1.1-0.4-1.6-0.7l0,0l0.6-1.7l0.1,0.1c1,0.6,2.1,1,3.3,1l0,0c0.7,0,1.4-0.2,1.9-0.6c0.5-0.4,0.7-1,0.7-1.6
				c0-0.3-0.1-0.6-0.2-0.9c-0.1-0.3-0.3-0.5-0.5-0.7c-0.6-0.5-1.2-0.9-1.9-1.1c-0.8-0.3-1.6-0.7-2.3-1.1c-0.6-0.4-1-0.9-1.3-1.5
				c-0.2-0.4-0.3-0.9-0.2-1.4c0-0.9,0.3-1.8,1-2.5c0.6-0.6,1.3-1,2.2-1.2c0.2-0.1,0.4-0.2,0.4-0.5v-1.9h1.6v1.8
				c0,0.2,0.2,0.5,0.4,0.5c0.9,0.1,1.8,0.3,2.5,0.8H44l-0.6,1.7h-0.1c-0.3-0.2-0.7-0.4-1.1-0.5c-0.6-0.2-1.2-0.3-1.8-0.3
				c-0.7,0-1.3,0.2-1.8,0.6c-0.5,0.5-0.7,1.4-0.4,2.1c0.1,0.2,0.3,0.5,0.5,0.6c0.7,0.5,1.4,0.9,2.2,1.2c0.8,0.3,1.5,0.7,2.2,1.2
				c0.5,0.4,1,1,1.2,1.6c0.2,0.5,0.2,0.9,0.2,1.4C44.5,45.1,44.1,46,43.5,46.7z"/>
		</g>
	</g>
</g>
</svg>
