<?xml version="1.0" encoding="UTF-8"?><svg id="Layer_1" xmlns="http://www.w3.org/2000/svg" viewBox="0 0 60 60"><defs><style>.cls-1{fill:#00263a;}</style></defs><path class="cls-1" d="m37.42,19.24l3.2-10.1h-21.24l3.2,10.1c-7.31,4.8-12.19,16.59-12.19,29.63v2h4.04v-4c.44-10.88,4.44-20.38,10.27-24.25h10.62c5.83,3.87,9.83,13.37,10.27,24.25h-28.6s-2.56,4-2.56,4h35.19v-2c0-13.04-4.88-24.82-12.19-29.63Zm-4-.63h-6.85l-1.73-5.48h10.32l-1.73,5.48Z"/><path class="cls-1" d="m34.77,37.41c0-1-.29-1.82-.86-2.46-.57-.64-1.41-1.07-2.5-1.31l-2.07-.45c-.92-.19-1.39-.66-1.39-1.41,0-.47.2-.84.62-1.1.41-.27,1.04-.4,1.88-.4,1.3,0,2.51.31,3.63.94v-2.77c-.78-.39-1.74-.57-2.79-.65v-1.78h-2.61v1.91c-.83.18-1.54.48-2.1.93-.92.75-1.38,1.77-1.38,3.06,0,1.03.3,1.87.89,2.52.59.65,1.42,1.09,2.49,1.33l2.05.45c.44.09.78.26,1.03.52.24.25.36.57.36.95,0,.5-.21.87-.63,1.13-.42.26-1.04.39-1.85.39-1.35,0-2.77-.31-4.24-.94v2.77c1.04.4,2.17.6,3.37.66v1.77h2.61v-1.92c.82-.19,1.53-.49,2.08-.94.93-.77,1.4-1.83,1.4-3.18Z"/></svg>