<?xml version="1.0" encoding="UTF-8"?><svg id="Layer_1" xmlns="http://www.w3.org/2000/svg" viewBox="0 0 60 60"><defs><style>.cls-1{fill:#00263a;}</style></defs><path class="cls-1" d="m53.65,35.58c-1.88-1.88-4.93-1.88-6.81,0l-5.12,5.12c-.88-1.09-2.22-1.81-3.73-1.81h-6.74c-1.61-2.49-4.73-4.96-9.15-4.96-2.42,0-4.6.6-6.36,1.69v-2.8H4.94v22.13h10.8v-13.59c1.07-2.21,3.3-3.43,6.36-3.43s5.28,1.91,6.17,3.81l.54,1.15h9.18c.44,0,.81.37.81.81s-.37.81-.81.81h-12.23v4h12.23c1.92,0,3.57-1.14,4.34-2.78l7.34-7.34c.31-.31.84-.31,1.15,0,.2.2.23.45.23.57s-.03.37-.23.58l-11.39,11.39h-21.14l-2.55,4h24.52c.53,0,1.04-.21,1.41-.59l11.98-11.98c.91-.91,1.41-2.12,1.41-3.4s-.5-2.5-1.41-3.4Zm-41.91,15.37h-2.8v-14.13h2.8v14.13Z"/><path class="cls-1" d="m37.58,30.45h9.19v-15.68l-8.94-8.69-4.6,4.47-4.6-4.47-8.94,8.69v15.68h17.87Zm5.19-13.99v9.99h-2.94v-5.74h-4v5.74h-2.94v-9.99l4.94-4.8,4.94,4.8Zm-19.06,9.99v-9.99l4.94-4.8,1.73,1.68-1.47,1.43v11.68h-5.19Z"/></svg>