<?xml version="1.0" encoding="UTF-8"?><svg id="Layer_1" xmlns="http://www.w3.org/2000/svg" viewBox="0 0 60 60"><defs><style>.cls-1{fill:#00263a;}</style></defs><g id="Layer_2"><g id="Layer_1-2"><path class="cls-1" d="m41.26,34.8c4.14-3.42,4.72-9.55,1.29-13.69-1.85-2.24-4.6-3.53-7.5-3.52h-.54c1-5.28-2.47-10.37-7.75-11.37-5.28-1-10.37,2.47-11.37,7.75-.66,3.48.62,7.04,3.35,9.3-7.2,2.62-11.99,9.45-12,17.11v2h12.76c-1.79,2.88-2.73,6.2-2.71,9.58v2h6.27v-4h-2.13c1.12-7.78,8.33-13.18,16.11-12.06,6.25.9,11.16,5.81,12.06,12.06h-23.49l-2.55,4h30.2v-2c.01-7.68-4.79-14.54-12-17.16ZM24.91,10.08c3.16,0,5.73,2.57,5.73,5.73,0,1.31-.45,2.59-1.28,3.61-.52.37-1,.79-1.43,1.25-2.68,1.68-6.22.86-7.9-1.82-1.68-2.68-.86-6.22,1.82-7.9.92-.57,1.99-.88,3.07-.87h-.02Zm-2.08,28.32h-12c1-7.01,7-12.22,14.08-12.23h.44c-.05.38-.08.77-.09,1.15,0,2.89,1.29,5.63,3.52,7.48-2.2.8-4.22,2.03-5.95,3.6Zm12.18-5.35c-3.16,0-5.73-2.55-5.73-5.71,0-1.32.45-2.61,1.29-3.63.52-.37,1-.79,1.43-1.26,2.69-1.67,6.22-.84,7.89,1.85,1.67,2.69.84,6.22-1.85,7.89-.91.57-1.97.86-3.04.86h.01Z"/></g></g></svg>