<?xml version="1.0" encoding="UTF-8"?><svg id="Layer_1" xmlns="http://www.w3.org/2000/svg" viewBox="0 0 60 60"><defs><style>.cls-1{fill:#00263a;}</style></defs><g><path class="cls-1" d="m19.3,43.08c-.68-.36-1.22-.87-1.6-1.52s-.57-1.39-.57-2.21.19-1.54.57-2.19c.38-.64.91-1.15,1.59-1.51.68-.36,1.45-.54,2.31-.54.51,0,.98.07,1.4.21.42.14.81.35,1.18.65v1.86c-.54-.41-1-.69-1.37-.85-.37-.16-.76-.24-1.18-.24-.56,0-1.05.11-1.48.33-.43.22-.76.53-.99.92-.23.4-.35.85-.35,1.36s.12.98.36,1.39c.24.4.57.71,1.01.94s.93.33,1.49.33c.43,0,.83-.08,1.2-.24s.83-.44,1.37-.85v1.86c-.37.29-.77.51-1.19.65-.42.14-.89.21-1.42.21-.87,0-1.64-.18-2.33-.54Z"/><path class="cls-1" d="m25.69,35.22h3.28c.92,0,1.62.23,2.11.67.49.45.73,1.06.73,1.82,0,.63-.17,1.16-.5,1.58-.34.42-.82.7-1.46.83l2.01,3.38h-1.91l-1.86-3.29h-.75v3.29h-1.66v-8.29Zm3.25,3.6c.36,0,.66-.1.88-.29.23-.19.34-.46.34-.81s-.11-.62-.34-.81-.52-.29-.88-.29h-1.59v2.2h1.59Z"/><path class="cls-1" d="m33.17,35.22h3.27l1.59,8.14,1.58-8.14h3.27v8.29h-1.66v-8.17l-1.59,8.17h-3.21l-1.59-8.17v8.17h-1.66v-8.29Z"/></g><path class="cls-1" d="m54,23.94v-13.24h-18.74v13.24h7.37v2.5h-10c-.64-3.52-2.89-6.59-6.16-8.21,2.24-2.79,1.78-6.87-1.01-9.11-2.79-2.24-6.87-1.78-9.11,1.01-1.89,2.37-1.89,5.73,0,8.1-3.27,1.62-5.53,4.69-6.16,8.21h-4.19v25.87h4v-21.87h40v17.87H12.54l-2.54,4h44v-25.87h-7.37v-2.5h7.37ZM18.93,14.14c0-1.37,1.11-2.48,2.48-2.49,1.38,0,2.49,1.1,2.5,2.48,0,1.38-1.1,2.49-2.48,2.5-1.38,0-2.49-1.1-2.5-2.48h0Zm4.5,7.13c2.48.7,4.42,2.64,5.12,5.12h-14.28c1.12-3.94,5.22-6.24,9.16-5.12Zm15.83-6.59h10.74v5.24h-10.74v-5.24Z"/></svg>