<?xml version="1.0" encoding="UTF-8"?><svg id="Layer_1" xmlns="http://www.w3.org/2000/svg" viewBox="0 0 60 60"><defs><style>.cls-1{fill:#00263a;}</style></defs><path class="cls-1" d="m35.85,37.51c3.23-3.04,3.58-8.12.72-11.58-1.62-1.96-4-3.08-6.57-3.08h-.03c-2.54,0-4.92,1.12-6.54,3.08-2.86,3.46-2.51,8.55.72,11.58-3.55,1.43-6.42,4.08-8.13,7.52l-.1.18c-1.03,2.12-1.57,4.48-1.56,6.81v2.01h5.92v-4.01h-1.73c.27-1.55.86-3.01,1.73-4.34l.12-.14c1.83-2.71,4.74-4.53,7.96-4.99.49-.07,1.01-.1,1.64-.1.63,0,1.15.03,1.64.1,4.94.71,8.92,4.58,9.79,9.47h-18.6l-2.56,4.01h25.35v-2c0-6.38-3.9-12.14-9.78-14.52Zm-1.49-5.14c-.27,1.17-.99,2.16-2,2.79-.7.44-1.52.67-2.35.67-.83,0-1.65-.23-2.35-.67-1.02-.63-1.73-1.62-2-2.79-.27-1.17-.08-2.37.55-3.39.82-1.32,2.24-2.11,3.8-2.12,1.56,0,2.98.8,3.8,2.12.63,1.02.83,2.22.55,3.39Z"/><g><polygon class="cls-1" points="15.55 5.97 17.09 10.14 21.53 10.31 18.05 13.07 19.25 17.34 15.55 14.88 11.86 17.34 13.06 13.07 9.57 10.31 14.01 10.14 15.55 5.97"/><polygon class="cls-1" points="30 5.97 31.54 10.14 35.98 10.31 32.49 13.07 33.7 17.34 30 14.88 26.3 17.34 27.51 13.07 24.02 10.31 28.46 10.14 30 5.97"/><polygon class="cls-1" points="44.45 5.97 45.99 10.14 50.43 10.31 46.94 13.07 48.14 17.34 44.45 14.88 40.75 17.34 41.95 13.07 38.47 10.31 42.91 10.14 44.45 5.97"/></g></svg>