<svg xmlns="http://www.w3.org/2000/svg" viewBox="0 0 60 60"><defs><style>.cls-1{fill:#c6c6c5;opacity:0;}.cls-2{fill:#1d1d1b;}</style></defs><g id="Layer_2" data-name="Layer 2"><g id="Layer_1-2" data-name="Layer 1"><rect class="cls-1" width="60" height="60"/><path class="cls-2" d="M42,34.84a9.72,9.72,0,0,0-6.21-17.21l-.54,0a9.73,9.73,0,1,0-15.77,5.68,18.23,18.23,0,0,0-12,17.11v2H20.24A18,18,0,0,0,17.53,52v2H23.8V50H21.67a14.23,14.23,0,0,1,28.17,0H26.35L23.8,54H54V52A18.23,18.23,0,0,0,42,34.84ZM25.65,10.12a5.73,5.73,0,0,1,4.45,9.34,9.49,9.49,0,0,0-1.43,1.25,5.73,5.73,0,1,1-3-10.59ZM23.57,38.44h-12A14.25,14.25,0,0,1,25.65,26.21l.44,0A10.55,10.55,0,0,0,26,27.36a9.72,9.72,0,0,0,3.52,7.48A18.06,18.06,0,0,0,23.57,38.44Zm12.18-5.35a5.72,5.72,0,0,1-4.44-9.34,9.49,9.49,0,0,0,1.43-1.26,5.73,5.73,0,1,1,3,10.6Z"/></g></g></svg>