<?xml version="1.0" encoding="UTF-8"?><svg id="Layer_1" xmlns="http://www.w3.org/2000/svg" viewBox="0 0 60 60"><defs><style>.cls-1{fill:#00263a;}</style></defs><path class="cls-1" d="m54,23.94v-13.24h-18.74v13.24h7.37v2.5h-10c-.64-3.52-2.89-6.59-6.16-8.21,2.24-2.79,1.78-6.87-1.01-9.11-2.79-2.24-6.87-1.78-9.11,1.01-1.89,2.37-1.89,5.73,0,8.1-3.27,1.62-5.53,4.69-6.16,8.21h-4.19v25.87h4v-21.87h40v17.87H12.54l-2.54,4h44v-25.87h-7.37v-2.5h7.37ZM18.93,14.14c0-1.37,1.11-2.48,2.48-2.49,1.38,0,2.49,1.1,2.5,2.48,0,1.38-1.1,2.49-2.48,2.5-1.38,0-2.49-1.1-2.5-2.48h0Zm4.5,7.13c2.48.7,4.42,2.64,5.12,5.12h-14.28c1.12-3.94,5.22-6.24,9.16-5.12Zm15.83-6.59h10.74v5.24h-10.74v-5.24Z"/></svg>