<svg xmlns="http://www.w3.org/2000/svg" viewBox="0 0 40.44 47"><defs><style>.cls-1{fill:#00263a;}</style></defs><g id="Layer_2" data-name="Layer 2"><g id="Layer_1-2" data-name="Layer 1"><path class="cls-1" d="M32,44H3V8H32v9.52h3V5H26.59V0H8.41V5H0V47H35V41.57H32ZM11.41,3H23.59V5H11.41ZM26.79,17H8.38V14H26.79Zm-5.08,7H8.38V21H21.71Zm0,7.19H8.38v-3H21.71ZM8.38,35H21.71v3H8.38Zm32-8.43-.16-1-1-.2a6.53,6.53,0,0,1-4.06-2.82l-.18-.33-1.6-1-1.61,1-.18.32a6.48,6.48,0,0,1-4.06,2.83l-1,.2-.16,1a10.79,10.79,0,0,0,5.89,11.07l1.16.47,1.15-.47A10.8,10.8,0,0,0,40.35,26.56ZM33.3,34.84A7.62,7.62,0,0,1,29.17,28a9.34,9.34,0,0,0,4.13-2.85A9.46,9.46,0,0,0,37.43,28,7.62,7.62,0,0,1,33.3,34.84Z"/></g></g></svg>