<?xml version="1.0" encoding="UTF-8"?><svg id="Layer_1" xmlns="http://www.w3.org/2000/svg" viewBox="0 0 60 60"><defs><style>.cls-1{fill:#00263a;}</style></defs><rect class="cls-1" x="13.5" y="12.8" width="16.39" height="4"/><rect class="cls-1" x="13.5" y="27.9" width="6.2" height="4"/><rect class="cls-1" x="13.5" y="35.45" width="6.2" height="4"/><rect class="cls-1" x="13.5" y="20.35" width="8.61" height="4"/><path class="cls-1" d="m38.59,32.52c-3.03,0-5.5,2.47-5.5,5.5s2.47,5.5,5.5,5.5,5.5-2.47,5.5-5.5-2.47-5.5-5.5-5.5Zm0,7c-.83,0-1.5-.67-1.5-1.5s.67-1.5,1.5-1.5,1.5.67,1.5,1.5-.67,1.5-1.5,1.5Z"/><path class="cls-1" d="m51.38,38.02c0-.3-.01-.61-.04-.93l3.73-2.15-.43-1.5c-.75-2.63-2.15-5.07-4.06-7.04l-1.09-1.12-3.73,2.15c-.51-.35-1.04-.65-1.6-.92V5.28H4.93v46.47h4V9.28h31.23v12.12c-.53-.05-1.06-.09-1.57-.09-1.33,0-2.69.17-4.06.52l-1.51.38v4.31c-.56.27-1.09.58-1.6.92l-3.73-2.15-1.09,1.12c-1.91,1.97-3.31,4.4-4.06,7.04l-.43,1.5,3.73,2.15c-.02.31-.04.62-.04.93s.01.61.04.93l-3.73,2.15.43,1.5c.53,1.85,1.38,3.6,2.5,5.16h-13.57l-2.54,4h24.09v2.07l1.51.38c.41.1.81.18,1.22.26.03,0,.07.01.1.02.93.16,1.84.24,2.74.24.77,0,1.56-.07,2.36-.18.11-.02.23-.03.34-.05.45-.08.9-.16,1.36-.28l1.51-.38v-4.31c.56-.27,1.09-.58,1.6-.92l3.73,2.15,1.09-1.12c1.91-1.97,3.31-4.4,4.06-7.04l.43-1.5-3.73-2.15c.02-.31.04-.62.04-.93Zm-4.16-1.62c.11.57.16,1.1.16,1.62s-.05,1.06-.16,1.62l-.26,1.39,3.32,1.92c-.41.97-.94,1.89-1.57,2.73l-3.33-1.92-1.08.92c-.83.71-1.77,1.25-2.8,1.62l-1.34.47v3.84c-1.07.14-2.08.14-3.15,0v-3.84l-1.34-.47c-1.04-.36-1.98-.91-2.8-1.62l-1.08-.92-3.33,1.92c-.64-.84-1.17-1.76-1.57-2.73l3.32-1.92-.26-1.39c-.11-.57-.16-1.1-.16-1.62s.05-1.06.16-1.62l.26-1.39-3.32-1.92c.41-.97.94-1.89,1.57-2.73l3.33,1.92,1.08-.92c.83-.71,1.77-1.25,2.81-1.62l1.34-.47v-3.84c1.07-.14,2.08-.14,3.15,0h0v3.84l1.34.47c1.04.36,1.98.91,2.81,1.62l1.08.92,3.33-1.92c.64.84,1.17,1.76,1.57,2.73l-3.32,1.92.26,1.39Z"/></svg>