<?xml version="1.0" encoding="utf-8"?>
<!-- Generator: Adobe Illustrator 25.4.1, SVG Export Plug-In . SVG Version: 6.00 Build 0)  -->
<svg version="1.1" id="Layer_1" xmlns="http://www.w3.org/2000/svg" xmlns:xlink="http://www.w3.org/1999/xlink" x="0px" y="0px"
	 viewBox="0 0 80 80" style="enable-background:new 0 0 80 80;" xml:space="preserve">
<style type="text/css">
	.st0{fill:url(#SVGID_1_);}
	.st1{fill:url(#SVGID_00000164497208327223338580000008874081891400965513_);}
</style>
<g id="Layer_2_00000129910528920469234320000002235475742934168488_">
	<g id="Layer_1-2">
		<g id="coin">
			
				<linearGradient id="SVGID_1_" gradientUnits="userSpaceOnUse" x1="35.5677" y1="59.1283" x2="46.4397" y2="59.1283" gradientTransform="matrix(1 0 0 -1 0 82.18)">
				<stop  offset="0" style="stop-color:#1E6C8E"/>
				<stop  offset="1" style="stop-color:#2E7775"/>
			</linearGradient>
			<path class="st0" d="M40.6,28.6c-1.2,0-2.4-0.3-3.4-1l-0.6-0.4l-1,2.9l0.4,0.3c1.1,0.7,2.4,1.1,3.6,1.2v2.6h2.8v-2.8
				c2.3-0.4,4-2.5,4-4.8c0-3.1-2.3-4.4-4.3-5.2c-2.4-1-2.8-1.5-2.8-2.3s0.6-1.6,2.1-1.6c1,0,2,0.3,2.9,0.8l0.6,0.4l1.1-2.8l-0.4-0.3
				c-0.9-0.5-2-0.8-3-0.9V12h-2.8v2.7c-2.2,0.4-3.9,2.3-3.9,4.6c0,2.8,2.2,4,4.6,5c1.8,0.7,2.5,1.4,2.5,2.5
				C42.9,27.8,42,28.6,40.6,28.6z M41,23.1c-2.8-1.1-3.8-2.2-3.8-3.8c0-1.9,1.3-3.2,3.3-3.5l0.5-0.1v-2.5h0.4v2.5h0.6
				c0.9,0,1.8,0.2,2.6,0.6l-0.2,0.6c-0.9-0.4-1.9-0.6-2.9-0.6c-2.3,0-3.3,1.4-3.3,2.8c0,1.9,1.5,2.6,3.5,3.5c2.6,1,3.6,2.2,3.6,4.1
				c0,2-1.6,3.6-3.5,3.8l-0.5,0.1v2.6h-0.4v-2.6h-0.6c-1.1,0-2.2-0.3-3.2-0.8l0.2-0.6c1,0.5,2.2,0.8,3.3,0.8c2.1,0,3.6-1.3,3.6-3.1
				C44.2,24.7,42.5,23.7,41,23.1L41,23.1z"/>
			
				<linearGradient id="SVGID_00000043456928220271837520000011268620747842120578_" gradientUnits="userSpaceOnUse" x1="5.325" y1="42.7038" x2="74.675" y2="42.7038" gradientTransform="matrix(1 0 0 -1 0 82.18)">
				<stop  offset="0" style="stop-color:#1E6C8E"/>
				<stop  offset="1" style="stop-color:#2E7775"/>
			</linearGradient>
			<path style="fill:url(#SVGID_00000043456928220271837520000011268620747842120578_);" d="M54.1,30.1c4.1-7.2,1.6-16.4-5.7-20.5
				C41.2,5.5,32.1,8.1,28,15.3c-2.6,4.6-2.6,10.2,0,14.8h-18L5.3,42.6l2.2,28.6h65.3l1.9-28.7l-5.8-12.5H54.1z M27.8,22.7
				c0-7.3,6-13.3,13.3-13.3c2.8,0,5.6,0.9,7.8,2.6l0.5,0.4c3.1,2.5,5,6.3,5,10.3c0,1.8-0.4,3.5-1.1,5.2c-1,2.4-2.7,4.4-4.9,5.9
				c-6.1,4.1-14.4,2.5-18.4-3.6C28.6,27.9,27.8,25.3,27.8,22.7z M44.3,37.4h18v3.1H17.7v-3.1h20.1h0.2c1,0.2,2,0.3,3,0.3h0.1
				C42.2,37.7,43.2,37.6,44.3,37.4z M70.4,68.7H9.9l-1.8-23h63.8L70.4,68.7z M72,43.6v0.3H8v-0.3V43l3.8-10.3h18.1
				c0.2,0.2,0.5,0.5,0.7,0.7c1.1,1.1,2.4,2.1,3.9,2.8H16.6v5.5h46.9v-5.5H47.7c1.7-0.9,3.3-2,4.5-3.5h15l4.9,10.4L72,43.6z"/>
		</g>
	</g>
</g>
</svg>
