<svg xmlns="http://www.w3.org/2000/svg" viewBox="0 0 48.23 47.71"><defs><style>.cls-1{fill:#1d1d1b;}</style></defs><g id="Layer_2" data-name="Layer 2"><g id="Layer_1-2" data-name="Layer 1"><path class="cls-1" d="M32.73,21,26.6,14.84l-2.82,2.83,3.3,3.3-1.24,1.24-3.3-3.3-2.83,2.83L23,25l-4.8,4.8a8.61,8.61,0,0,0-4.5-1.3v-7.1H9.84L26.07,5.62,35,14.54V4.73h3V16l5.84,5.83L46.62,19,42,14.29V.73H31V4.88L26.1,0,0,25.44H9.71v4a8.79,8.79,0,0,0-2.2,1.6,8.69,8.69,0,1,0,14.83,6.14A8.6,8.6,0,0,0,21,32.67ZM17,40.54a4.65,4.65,0,0,1-3.6,1.34l-2.31,3.63V41.13a4.43,4.43,0,0,1-.72-.59,4.69,4.69,0,0,1,0-6.63,4.7,4.7,0,0,1,6.63,0,4.7,4.7,0,0,1,0,6.63Z"/><path class="cls-1" d="M41.69,35.4a6.4,6.4,0,0,0,1.62-4.26A6.49,6.49,0,1,0,32,35.4a11.43,11.43,0,0,0-6.54,10.31v2H48.23v-2A11.43,11.43,0,0,0,41.69,35.4Zm-4.87-6.74a2.48,2.48,0,1,1-2.48,2.48A2.49,2.49,0,0,1,36.82,28.66ZM29.69,43.71a7.41,7.41,0,0,1,14.27,0Z"/></g></g></svg>