<?xml version="1.0" encoding="UTF-8"?><svg id="Layer_1" xmlns="http://www.w3.org/2000/svg" viewBox="0 0 60 60"><defs><style>.cls-1{fill:#00263a;}</style></defs><g><path class="cls-1" d="m47.33,19.15c0-3.38-2.75-6.13-6.13-6.13s-6.13,2.75-6.13,6.13,2.75,6.13,6.13,6.13,6.13-2.75,6.13-6.13Zm-8.27,0c0-1.18.96-2.13,2.13-2.13s2.13.96,2.13,2.13-.96,2.13-2.13,2.13-2.13-.96-2.13-2.13Z"/><path class="cls-1" d="m38.83,5.59c-8.78,0-15.92,7.14-15.92,15.92,0,1.73.27,3.42.82,5.04L5.25,45.04v9.37h4v-7.71l19.19-19.19-.54-1.25c-.65-1.51-.98-3.1-.98-4.74,0-6.57,5.35-11.92,11.92-11.92s11.92,5.35,11.92,11.92-5.35,11.92-11.92,11.92c-1.64,0-3.23-.33-4.74-.98l-1.25-.54-7.26,7.26h-5.87v5.87l-1.37,1.37h-4.44v4h-2.1l-2.55,4h8.65v-4h2.1l3.71-3.71v-3.52h3.52l6.55-6.55c1.62.54,3.31.82,5.04.82,8.78,0,15.92-7.14,15.92-15.92s-7.14-15.92-15.92-15.92Z"/></g><polygon class="cls-1" points="42.66 54.41 36.63 48.38 39.46 45.55 42.66 48.75 51.92 39.49 54.75 42.32 42.66 54.41"/></svg>