<?xml version="1.0" encoding="UTF-8"?><svg id="Layer_1" xmlns="http://www.w3.org/2000/svg" viewBox="0 0 60 60"><defs><style>.cls-1{fill:#00263a;}</style></defs><path class="cls-1" d="m47.47,30.06c0-.42-.02-.84-.05-1.26l5.09-2.94-.58-2.05c-1.02-3.6-2.94-6.92-5.55-9.61l-1.48-1.53-5.1,2.94c-.7-.47-1.42-.89-2.18-1.26v-5.88l-2.07-.52c-1.87-.47-3.74-.7-5.55-.7s-3.68.24-5.55.7l-2.07.52v5.88c-.76.37-1.49.79-2.18,1.26l-5.1-2.94-1.48,1.53c-2.61,2.69-4.52,6.01-5.55,9.61l-.58,2.05,5.09,2.94c-.03.43-.05.85-.05,1.26s.02.84.05,1.26l-5.09,2.94.58,2.05c1.02,3.6,2.94,6.92,5.55,9.61l1.17,1.21c-.28,1.19-.43,2.4-.43,3.61v2.01h5.92v-4.01h-1.73c.27-1.55.86-3.01,1.73-4.34l.12-.14c1.83-2.71,4.74-4.53,7.96-4.99.49-.07,1.01-.1,1.64-.1.63,0,1.15.03,1.64.1,4.94.71,8.92,4.58,9.79,9.47h-18.6l-2.56,4.01h25.35v-2c0-1.23-.15-2.44-.42-3.6h0l1.18-1.21c2.61-2.69,4.52-6.01,5.55-9.61l.58-2.05-5.09-2.94c.03-.43.05-.85.05-1.26Zm-13.12,1.02c-.27,1.17-.99,2.16-2,2.79-.7.44-1.52.67-2.35.67-.83,0-1.65-.23-2.35-.67-1.02-.63-1.73-1.62-2-2.79-.27-1.17-.08-2.37.55-3.39.82-1.32,2.24-2.11,3.8-2.12,1.56,0,2.98.8,3.8,2.12.63,1.02.83,2.22.55,3.39Zm13.52,5.08l-.52,1.22c-.61,1.44-1.4,2.8-2.34,4.05l-.8,1.06-1.57-.9c-1.69-2.35-4.03-4.23-6.81-5.36,3.23-3.04,3.58-8.12.72-11.58-1.62-1.96-4-3.08-6.57-3.08h-.03c-2.54,0-4.92,1.12-6.54,3.08-2.86,3.46-2.51,8.55.72,11.58-2.76,1.11-5.11,2.97-6.82,5.37l-1.55.9-.8-1.06c-.94-1.24-1.73-2.61-2.34-4.05l-.52-1.22,4.77-2.75-.16-.86c-.16-.87-.24-1.68-.24-2.49s.08-1.63.24-2.49l.16-.86-4.77-2.75.52-1.22c.61-1.44,1.4-2.8,2.34-4.05l.8-1.06,4.77,2.75.66-.57c1.27-1.09,2.72-1.93,4.31-2.49l.82-.29v-5.5l1.3-.17c.8-.11,1.57-.16,2.35-.16s1.55.05,2.35.16l1.3.17v5.5l.82.29c1.59.56,3.04,1.4,4.31,2.49l.66.57,4.77-2.75.8,1.06c.94,1.25,1.73,2.61,2.34,4.05l.52,1.22-4.77,2.75.16.86c.16.87.24,1.68.24,2.49s-.08,1.63-.24,2.49l-.16.86,4.77,2.75Z"/></svg>