<svg xmlns="http://www.w3.org/2000/svg" viewBox="0 0 60 60"><defs><style>.cls-1{fill:#c6c6c5;opacity:0;}.cls-2{fill:#00263a;}</style></defs><g id="Layer_2" data-name="Layer 2"><g id="Layer_1-2" data-name="Layer 1"><rect class="cls-1" width="60" height="60"/><polygon class="cls-2" points="18.99 43.22 18.99 30.08 14.23 28.76 32.98 11.84 41.95 20.81 41.95 10.1 44.93 10.1 44.93 22.22 50.77 28.05 53.59 25.22 48.93 20.56 48.93 6.1 37.95 6.1 37.95 11.15 33.12 6.33 6.15 30.66 14.99 33.12 14.99 49.61 18.97 49.61 18.97 43.22 18.99 43.22"/><path class="cls-2" d="M51.51,40.21v-.36l2.3-1.58-.33-1.35a13.51,13.51,0,0,0-.59-1.8l-.52-1.29-2.8.07c-.13-.19-.27-.39-.42-.58l.94-2.63L49,29.8a13.17,13.17,0,0,0-1.54-1.12l-1.18-.74L44.1,29.65c-.23-.08-.46-.16-.69-.22l-.79-2.68-1.39-.1a14.9,14.9,0,0,0-1.89,0l-1.39.1-.79,2.68c-.23.06-.46.14-.68.22l-2.22-1.71-1.18.74a14.07,14.07,0,0,0-1.54,1.12l-1.06.89.94,2.63c-.15.19-.29.39-.42.58l-2.8-.07-.52,1.29a13.51,13.51,0,0,0-.59,1.8l-.33,1.35,2.31,1.58c0,.12,0,.24,0,.36s0,.24,0,.36l-2.31,1.58.33,1.34a13.64,13.64,0,0,0,.59,1.81l.52,1.29,2.8-.08c.13.2.27.39.42.58l-.94,2.64,1.06.89a15.52,15.52,0,0,0,1.54,1.12l1.18.73,2.22-1.7.68.22L38,53.67l1.39.1c.31,0,.63,0,.95,0s.63,0,.94,0l1.39-.1L43.41,51l.69-.22,2.21,1.7,1.18-.73A14.44,14.44,0,0,0,49,50.62l1.06-.89-.94-2.64c.15-.19.29-.38.42-.58l2.8.08.52-1.29a13.64,13.64,0,0,0,.59-1.81l.33-1.34-2.3-1.58Zm-4.08,1.06-.17,1.2-.57,1.08a7.26,7.26,0,0,1-1.24,1.71l-.86.88-1.09.54a6.76,6.76,0,0,1-2,.65l-1.2.21-1.21-.21a6.86,6.86,0,0,1-2-.65L36,46.14l-.85-.88a7,7,0,0,1-1.25-1.71l-.57-1.08-.17-1.2a7.68,7.68,0,0,1-.08-1.06,7.56,7.56,0,0,1,.08-1.06l.17-1.2.57-1.09a7.44,7.44,0,0,1,1.25-1.71l.85-.87,1.09-.54a7.19,7.19,0,0,1,2-.66l1.21-.2,1.2.2a7.08,7.08,0,0,1,2,.66l1.09.54.86.87a7.7,7.7,0,0,1,1.24,1.71L47.26,38l.17,1.2a6.31,6.31,0,0,1,.08,1.06A6.39,6.39,0,0,1,47.43,41.27Z"/><polygon class="cls-2" points="18.97 49.61 23.06 49.61 23.06 45.61 21.52 45.61 18.97 49.61"/></g></g></svg>