<svg xmlns="http://www.w3.org/2000/svg" viewBox="0 0 46.95 46.78"><defs><style>.cls-1{fill:#00263a;}</style></defs><g id="Layer_2" data-name="Layer 2"><g id="Layer_1-2" data-name="Layer 1"><path class="cls-1" d="M40.89,29.56l3.85-3.85-2.12-2.12-3.88,3.88a23.5,23.5,0,0,0-9.58-5,12,12,0,1,0-11.36,0A23.53,23.53,0,0,0,0,45.28v1.5H47v-1.5A23.34,23.34,0,0,0,40.89,29.56ZM14.51,12a9,9,0,1,1,9,9A9,9,0,0,1,14.51,12ZM3.05,43.78A20.44,20.44,0,0,1,36.6,29.61l-6.08,6.08-5.41-5.41L23,32.4l7.53,7.53,8.25-8.25a20.44,20.44,0,0,1,5.13,12.1Z"/></g></g></svg>