<?xml version="1.0" encoding="UTF-8"?><svg id="Layer_1" xmlns="http://www.w3.org/2000/svg" viewBox="0 0 60 60"><defs><style>.cls-1{fill:#00263a;}</style></defs><path class="cls-1" d="m4.94,14.58h2.99l1.45,7.45,1.44-7.45h2.99v7.6h-1.52v-7.49l-1.45,7.49h-2.94l-1.45-7.49v7.49h-1.52v-7.6Z"/><path class="cls-1" d="m53.65,33.58c-1.88-1.88-4.93-1.88-6.81,0l-5.12,5.12c-.88-1.09-2.22-1.81-3.73-1.81h-6.74c-1.61-2.49-4.73-4.96-9.15-4.96-2.42,0-4.6.6-6.36,1.69v-2.8H4.94v22.13h10.8v-13.59c1.07-2.21,3.3-3.43,6.36-3.43s5.28,1.91,6.17,3.81l.54,1.15h9.18c.44,0,.81.37.81.81s-.37.81-.81.81h-12.23v4h12.23c1.92,0,3.57-1.14,4.34-2.78l7.34-7.34c.31-.31.84-.31,1.15,0,.2.2.23.45.23.57s-.03.37-.23.58l-11.39,11.39h-21.14l-2.55,4h24.52c.53,0,1.04-.21,1.41-.59l11.98-11.98c.91-.91,1.41-2.12,1.41-3.4s-.5-2.5-1.41-3.4Zm-41.91,15.37h-2.8v-14.13h2.8v14.13Z"/><path class="cls-1" d="m38.75,29.67c6.24,0,11.31-5.07,11.31-11.31s-5.07-11.31-11.31-11.31-11.31,5.07-11.31,11.31,5.07,11.31,11.31,11.31Zm0-18.62c4.03,0,7.31,3.28,7.31,7.31s-3.28,7.31-7.31,7.31-7.31-3.28-7.31-7.31,3.28-7.31,7.31-7.31Z"/><path class="cls-1" d="m41.36,19.83c0-.55-.16-1-.47-1.35-.31-.35-.77-.59-1.37-.72l-1.13-.25c-.51-.11-.76-.36-.76-.77,0-.26.11-.46.34-.6.22-.15.57-.22,1.03-.22.71,0,1.38.17,1.99.51v-1.52c-.43-.21-.95-.31-1.53-.36v-.98h-1.43v1.04c-.46.1-.85.26-1.15.51-.5.41-.75.97-.75,1.67,0,.56.16,1.02.49,1.38.32.36.78.6,1.36.73l1.12.25c.24.05.43.14.56.28.13.14.2.31.2.52,0,.27-.12.48-.35.62-.23.14-.57.21-1.01.21-.74,0-1.51-.17-2.32-.51v1.52c.57.22,1.19.33,1.85.36v.97h1.43v-1.05c.45-.1.84-.27,1.14-.51.51-.42.76-1,.76-1.74Z"/></svg>