<?xml version="1.0" encoding="utf-8"?>
<!-- Generator: Adobe Illustrator 25.4.1, SVG Export Plug-In . SVG Version: 6.00 Build 0)  -->
<svg version="1.1" id="Layer_1" xmlns="http://www.w3.org/2000/svg" xmlns:xlink="http://www.w3.org/1999/xlink" x="0px" y="0px"
	 viewBox="0 0 80 80" style="enable-background:new 0 0 80 80;" xml:space="preserve">
<style type="text/css">
	.st0{fill:url(#SVGID_1_);}
	.st1{fill:url(#SVGID_00000160189925794541041070000010225753437792008882_);}
	.st2{fill:url(#SVGID_00000043444028983077415350000017179868646156032940_);}
</style>
<g id="Layer_2_00000023260115466144852010000011420944969017494696_">
	<g id="Layer_1-2">
		<g id="money-sack">
			
				<linearGradient id="SVGID_1_" gradientUnits="userSpaceOnUse" x1="11.08" y1="32.455" x2="68.93" y2="32.455" gradientTransform="matrix(1 0 0 -1 0 81.95)">
				<stop  offset="0" style="stop-color:#1E6C8E"/>
				<stop  offset="1" style="stop-color:#2E7775"/>
			</linearGradient>
			<path class="st0" d="M11.1,58.6c0,4.6,1.1,7.9,3.3,10.1c2.9,2.8,7.4,3.4,12.7,3.4c1.9,0,3.8-0.1,5.8-0.1c2.3-0.1,4.6-0.2,7-0.2
				c1.9,0,3.7,0,5.5,0.1c8.5,0.2,15.8,0.3,20-3.8c2.3-2.3,3.5-5.7,3.5-10.4c0-11.2-7-26.1-18.3-30.6C50.5,27,50.4,27,50.3,27H29.8
				c-0.1,0-0.3,0-0.4,0.1C18.4,31.4,11.1,46.9,11.1,58.6z M30,29.2h20.1c9.2,3.8,16.6,16.5,16.6,28.5c0,4.1-0.9,6.9-2.8,8.8
				c-3.5,3.4-10.4,3.3-18.3,3.1c-1.8,0-3.6-0.1-5.5-0.1c-2.5,0-4.8,0.1-7.1,0.2C25.5,69.9,19.2,70.1,16,67c-1.8-1.7-2.6-4.5-2.6-8.5
				C13.3,45.1,21.9,32.6,30,29.2z"/>
			
				<linearGradient id="SVGID_00000103967565838949549560000004912990010829586071_" gradientUnits="userSpaceOnUse" x1="25.08" y1="65.475" x2="54.7" y2="65.475" gradientTransform="matrix(1 0 0 -1 0 81.95)">
				<stop  offset="0" style="stop-color:#1E6C8E"/>
				<stop  offset="1" style="stop-color:#2E7775"/>
			</linearGradient>
			<path style="fill:url(#SVGID_00000103967565838949549560000004912990010829586071_);" d="M31.1,25h17.6c0.3,0,0.6-0.1,0.8-0.4
				c3.3-3.5,5.2-10.6,5.2-15.5c0-0.6-0.5-1.1-1.1-1.1H26.2c-0.6,0-1.1,0.5-1.1,1.1c0,4.9,2,12,5.2,15.5C30.5,24.8,30.8,25,31.1,25z
				 M52.4,10.2c-0.2,4.1-1.8,9.6-4.3,12.5H31.6c-2.4-2.9-4-8.4-4.3-12.5H52.4z"/>
			
				<linearGradient id="SVGID_00000143613231208303710000000012159061367600617893_" gradientUnits="userSpaceOnUse" x1="31.24" y1="33.265" x2="48.76" y2="33.265" gradientTransform="matrix(1 0 0 -1 0 81.95)">
				<stop  offset="0" style="stop-color:#1E6C8E"/>
				<stop  offset="1" style="stop-color:#2E7775"/>
			</linearGradient>
			<path style="fill:url(#SVGID_00000143613231208303710000000012159061367600617893_);" d="M31.8,58.6c1.7,0.9,3.6,1.5,5.6,1.6v2.2
				c0,0.6,0.5,1.1,1.1,1.1h3.4c0.3,0,0.6-0.1,0.8-0.3c0.2-0.2,0.3-0.5,0.3-0.8v-2.6c3.1-0.7,5.4-3.3,5.7-6.5l0,0
				c0.4-2.6-0.8-5.2-3.1-6.5c-0.4-0.2-0.9-0.4-1.6-0.7c-1.4-0.5-2.7-1.1-4-1.9c-0.4-0.2-0.6-0.6-0.5-1c0.1-0.3,0.6-0.4,0.8-0.4
				c1.8,0,3.5,0.3,5.2,0.9c0.3,0.1,0.6,0.1,0.9-0.1c0.3-0.2,0.5-0.4,0.5-0.7l0.8-3.7c0.1-0.5-0.1-0.9-0.5-1.2
				c-1.4-0.7-2.8-1.1-4.3-1.2v-2c0-0.6-0.5-1.1-1.1-1.1h0h-3.4c-0.6,0-1.1,0.5-1.1,1.1v0v2.6c-4,1.1-5.9,3.8-5.5,7.7
				c0.5,4.2,6.1,6.1,7.2,6.4c2.3,0.7,2.2,1,2.1,1.6c-0.1,0.6-2.1,1-4,0.6c-1-0.2-2-0.6-3-1.1c-0.3-0.2-0.7-0.2-1-0.1
				c-0.3,0.1-0.5,0.4-0.7,0.7l-1.3,4C31.1,57.8,31.3,58.3,31.8,58.6z M34.3,55.2c0.8,0.3,1.6,0.6,2.4,0.8c2.3,0.5,6,0.3,6.6-2.3
				c0.7-3-2.2-3.8-3.7-4.2c-1.8-0.5-5.4-2.1-5.6-4.5c-0.4-3,1.1-4.7,4.6-5.5c0.5-0.1,0.9-0.6,0.9-1.1V36h1.2v1.9
				c0,0.6,0.4,1.1,1,1.1c1.2,0.1,2.5,0.3,3.6,0.7l-0.3,1.6c-1.6-0.5-3.2-0.7-4.8-0.7c-1.3,0-2.5,0.9-2.8,2.1
				c-0.3,1.3,0.3,2.7,1.5,3.4c1.4,0.8,2.8,1.5,4.4,2.1c0.6,0.2,1.1,0.4,1.3,0.6c1.5,0.9,2.3,2.6,1.9,4.3c-0.3,2.5-2.2,4.4-4.7,4.6
				c-0.6,0.1-1,0.5-1,1.1v2.4h-1.2v-2.2c0-0.6-0.5-1.1-1.1-1.1c-1.6-0.1-3.3-0.4-4.8-1L34.3,55.2z"/>
		</g>
	</g>
</g>
</svg>
