<?xml version="1.0" encoding="UTF-8"?><svg id="Layer_1" xmlns="http://www.w3.org/2000/svg" viewBox="0 0 60 60"><defs><style>.cls-1{fill:#00263a;}</style></defs><g><path class="cls-1" d="m4.94,14.58h2.99l1.45,7.45,1.44-7.45h2.99v7.6h-1.52v-7.49l-1.45,7.49h-2.94l-1.45-7.49v7.49h-1.52v-7.6Z"/><path class="cls-1" d="m15.17,21.88v-1.54c.82.35,1.6.52,2.35.52.45,0,.79-.07,1.03-.22s.35-.35.35-.63c0-.21-.07-.39-.2-.53-.13-.14-.32-.24-.57-.29l-1.14-.25c-.59-.13-1.05-.38-1.38-.74-.33-.36-.49-.83-.49-1.4,0-.72.25-1.28.76-1.7.51-.42,1.24-.62,2.19-.62.77,0,1.43.13,1.98.4v1.54c-.62-.35-1.29-.52-2.02-.52-.47,0-.82.07-1.05.22-.23.15-.34.35-.34.61,0,.41.26.67.77.78l1.15.25c.61.13,1.07.37,1.39.73.32.35.48.81.48,1.37,0,.75-.26,1.34-.78,1.77-.52.43-1.26.64-2.22.64-.82,0-1.57-.13-2.26-.4Z"/><path class="cls-1" d="m23.26,21.79c-.63-.33-1.11-.8-1.46-1.39-.35-.6-.53-1.27-.53-2.02s.17-1.41.52-2c.35-.59.83-1.05,1.45-1.38.62-.33,1.33-.5,2.12-.5.47,0,.9.06,1.29.19.39.13.75.32,1.08.59v1.7c-.5-.38-.92-.64-1.25-.78-.34-.14-.7-.22-1.08-.22-.51,0-.97.1-1.36.3-.39.2-.69.48-.91.85-.21.36-.32.78-.32,1.25s.11.9.33,1.27c.22.37.52.65.92.86.4.2.85.3,1.37.3.39,0,.76-.07,1.1-.22.34-.14.76-.41,1.26-.78v1.7c-.34.27-.7.46-1.09.59-.39.13-.82.19-1.3.19-.8,0-1.51-.17-2.13-.5Z"/></g><path class="cls-1" d="m53.65,33.58c-1.88-1.88-4.93-1.88-6.81,0l-5.12,5.12c-.88-1.09-2.22-1.81-3.73-1.81h-6.74c-1.61-2.49-4.73-4.96-9.15-4.96-2.42,0-4.6.6-6.36,1.69v-2.8H4.94v22.13h10.8v-13.59c1.07-2.21,3.3-3.43,6.36-3.43s5.28,1.91,6.17,3.81l.54,1.15h9.18c.44,0,.81.37.81.81s-.37.81-.81.81h-12.23v4h12.23c1.92,0,3.57-1.14,4.34-2.78l7.34-7.34c.31-.31.84-.31,1.15,0,.2.2.23.45.23.57s-.03.37-.23.58l-11.39,11.39h-21.14l-2.55,4h24.52c.53,0,1.04-.21,1.41-.59l11.98-11.98c.91-.91,1.41-2.12,1.41-3.4s-.5-2.5-1.41-3.4Zm-41.91,15.37h-2.8v-14.13h2.8v14.13Z"/><path class="cls-1" d="m43.75,29.67c6.24,0,11.31-5.07,11.31-11.31s-5.07-11.31-11.31-11.31-11.31,5.07-11.31,11.31,5.07,11.31,11.31,11.31Zm0-18.62c4.03,0,7.31,3.28,7.31,7.31s-3.28,7.31-7.31,7.31-7.31-3.28-7.31-7.31,3.28-7.31,7.31-7.31Z"/><path class="cls-1" d="m46.36,19.83c0-.55-.16-1-.47-1.35-.31-.35-.77-.59-1.37-.72l-1.13-.25c-.51-.11-.76-.36-.76-.77,0-.26.11-.46.34-.6.22-.15.57-.22,1.03-.22.71,0,1.38.17,1.99.51v-1.52c-.43-.21-.95-.31-1.53-.36v-.98h-1.43v1.04c-.46.1-.85.26-1.15.51-.5.41-.75.97-.75,1.67,0,.56.16,1.02.49,1.38.32.36.78.6,1.36.73l1.12.25c.24.05.43.14.56.28.13.14.2.31.2.52,0,.27-.12.48-.35.62-.23.14-.57.21-1.01.21-.74,0-1.51-.17-2.32-.51v1.52c.57.22,1.19.33,1.85.36v.97h1.43v-1.05c.45-.1.84-.27,1.14-.51.51-.42.76-1,.76-1.74Z"/></svg>