<?xml version="1.0" encoding="utf-8"?>
<!-- Generator: Adobe Illustrator 27.5.0, SVG Export Plug-In . SVG Version: 6.00 Build 0)  -->
<svg version="1.1" id="Layer_1" xmlns="http://www.w3.org/2000/svg" xmlns:xlink="http://www.w3.org/1999/xlink" x="0px" y="0px"
	 viewBox="0 0 60 60" style="enable-background:new 0 0 60 60;" xml:space="preserve">
<style type="text/css">
	.st0{fill:#00263A;}
	.st1{fill:none;stroke:#00263A;stroke-width:4;stroke-miterlimit:10;}
	.st2{fill:none;stroke:#00263A;stroke-width:4;stroke-linejoin:round;stroke-miterlimit:10;}
	.st3{fill:#FFFFFF;stroke:#00263A;stroke-width:4;stroke-miterlimit:10;}
</style>
<g>
	<path class="st0" d="M34.3,21.4l-1.1-0.2c-0.5-0.1-0.8-0.4-0.8-0.8c0-0.3,0.1-0.5,0.3-0.6c0.2-0.1,0.6-0.2,1-0.2
		c0.7,0,1.4,0.2,2,0.5v-1.5c-0.4-0.2-1-0.3-1.5-0.4v-1h-1.4v1c-0.5,0.1-0.8,0.3-1.1,0.5c-0.5,0.4-0.8,1-0.8,1.7c0,0.6,0.2,1,0.5,1.4
		c0.3,0.4,0.8,0.6,1.4,0.7l1.1,0.2c0.2,0.1,0.4,0.1,0.6,0.3c0.1,0.1,0.2,0.3,0.2,0.5c0,0.3-0.1,0.5-0.3,0.6c-0.2,0.1-0.6,0.2-1,0.2
		c-0.7,0-1.5-0.2-2.3-0.5v1.5c0.6,0.2,1.2,0.3,1.8,0.4v1h1.4v-1.1c0.5-0.1,0.8-0.3,1.1-0.5c0.5-0.4,0.8-1,0.8-1.7
		c0-0.5-0.2-1-0.5-1.3C35.4,21.8,34.9,21.5,34.3,21.4z"/>
	<g>
		<path class="st0" d="M42.5,45.3l1.7-0.9c1.8-1,2.8-2.1,2.8-3.3c0-1.1-0.8-1.7-2.4-1.7c-1.5,0-2.8,0.5-4.8,1.8v-3.1
			c1.6-1,3.3-1.5,4.8-1.5c3.2,0,5.2,1.8,5.2,4.6c0,3.7-4.6,5.7-4.6,5.7V50h-2.7V45.3z M43.8,51.4c1,0,1.8,0.8,1.8,1.8
			s-0.8,1.8-1.8,1.8c-1,0-1.8-0.8-1.8-1.8S42.8,51.4,43.8,51.4z"/>
	</g>
	<path class="st0" d="M33.5,10.7c-1,0-1.9,0.1-2.8,0.4c0.5-1.6,0.1-3.4-1.2-4.7c-0.9-0.9-2.1-1.4-3.4-1.4c-1.3,0-2.5,0.5-3.4,1.4
		l-12,12c-0.4,0.4-0.6,0.9-0.6,1.4v13.7V34v10.2V48v7.1h4v-4v-2.8h14.1v2.8H16.7l-2.5,4h18.1V44.3h-2.8c1.1-1.8,1.7-3.9,1.7-6.4
		c0-2-0.5-3.7-1.3-5.2c1.1,0.4,2.4,0.6,3.7,0.6c6.2,0,11.3-5.1,11.3-11.3S39.8,10.7,33.5,10.7z M23.7,44.3h-9.6V34v-0.6V20.6
		L25.6,9.2C25.8,9,26,8.9,26.1,8.9s0.4,0,0.6,0.2c0.3,0.3,0.3,0.8,0,1.1l-7.3,7.3c-1.6,0.8-2.8,2.4-2.8,4.3v12.2h4V22
		c0-0.4,0.4-0.8,0.8-0.8c0.4,0,0.8,0.4,0.8,0.8v9.2l1.1,0.5c1.9,0.9,3.8,3.1,3.8,6.2C27.2,41,26,43.2,23.7,44.3z M33.5,29.3
		c-4,0-7.3-3.3-7.3-7.3s3.3-7.3,7.3-7.3s7.3,3.3,7.3,7.3S37.6,29.3,33.5,29.3z"/>
</g>
</svg>
