<?xml version="1.0" encoding="UTF-8"?><svg id="Layer_1" xmlns="http://www.w3.org/2000/svg" viewBox="0 0 60 60"><defs><style>.cls-1{fill:#00263a;}</style></defs><path class="cls-1" d="m17.31,29.39c6.24,0,11.31-5.07,11.31-11.31s-5.07-11.31-11.31-11.31-11.31,5.07-11.31,11.31,5.07,11.31,11.31,11.31Zm0-18.62c4.03,0,7.31,3.28,7.31,7.31s-3.28,7.31-7.31,7.31-7.31-3.28-7.31-7.31,3.28-7.31,7.31-7.31Z"/><polygon class="cls-1" points="15.48 49.23 15.48 38.66 11.48 38.66 11.48 49.23 6 49.23 6 53.23 15.48 53.23 15.48 49.81 15.48 49.23"/><polygon class="cls-1" points="48.52 49.23 48.52 14.02 50.7 14.02 46.52 6.77 42.33 14.02 44.52 14.02 44.52 49.23 37.51 49.23 37.51 23.81 33.51 23.81 33.51 49.23 26.49 49.23 26.49 34.19 22.49 34.19 22.49 49.23 18.02 49.23 15.48 53.23 54 53.23 54 49.23 48.52 49.23"/><path class="cls-1" d="m19.93,19.54c0-.55-.16-1-.47-1.35-.31-.35-.77-.59-1.37-.72l-1.13-.25c-.51-.11-.76-.36-.76-.77,0-.26.11-.46.34-.6.22-.15.57-.22,1.03-.22.71,0,1.38.17,1.99.51v-1.52c-.43-.21-.95-.31-1.53-.36v-.98h-1.43v1.04c-.46.1-.85.26-1.15.51-.5.41-.75.97-.75,1.67,0,.56.16,1.02.49,1.38.32.36.78.6,1.36.73l1.12.25c.24.05.43.14.56.28.13.14.2.31.2.52,0,.27-.12.48-.35.62-.23.14-.57.21-1.01.21-.74,0-1.51-.17-2.32-.51v1.52c.57.22,1.19.33,1.85.36v.97h1.43v-1.05c.45-.1.84-.27,1.14-.51.51-.42.76-1,.76-1.74Z"/></svg>