<?xml version="1.0" encoding="UTF-8"?><svg id="Layer_1" xmlns="http://www.w3.org/2000/svg" viewBox="0 0 60 60"><defs><style>.cls-1{fill:#00263a;}</style></defs><path class="cls-1" d="m51.6,18.67c-3.11,0-6.21,0-9.32,0-.18.03-.32-.05-.47-.19-.56-.56-1.13-1.12-1.7-1.67-.65-.63-1.29-1.27-1.93-1.91-1.44-1.46-3.2-2.18-5.34-2.18-2.87.02-5.74.01-8.61,0h-.05c-2.66,0-4.91.94-6.7,2.79-.14.14-.25.19-.46.19h0c-1.45,0-12.88,0-12.88,0v19.81s3.47,0,3.99,0v-15.85h.06c.85,0,1.69,0,2.54,0,2.07-.01,4.21-.02,6.31.03,1.44.03,2.44-.38,3.25-1.37.64-.77,1.51-1.27,2.57-1.49.42-.09.81-.13,1.18-.13,2.53-.01,5.05,0,7.58,0h1.38c.9,0,1.63.29,2.24.9l1.67,1.65c1.05,1.03,2.11,2.07,3.15,3.11.3.3.43.7.33,1.05-.09.33-.34.57-.7.67-.39.11-.71,0-1.08-.38-.49-.5-.99-.99-1.48-1.48-.88-.88-1.77-1.76-2.63-2.65-.62-.64-1.32-.94-2.17-.9-1.03.03-2.05.02-3.19,0-.68-.01-1.26.2-1.78.63-1.49,1.26-2.99,2.51-4.49,3.77-1.45,1.21-2.9,2.43-4.34,3.65-1.58,1.33-2.17,3.06-1.71,5.01.45,1.9,1.72,3.17,3.68,3.67v.11s-.11,0-.11,0c-.63,0-1.24,0-1.86-.01-.02-.02-.07-.05-.15-.13-1.02-1.01-2.04-2.01-3.04-3.04-.49-.51-1.11-.76-1.8-.78h0s-.1,0-.1,0c0,0,0,0-.01,0-.21,0-.43,0-.64,0h-2.12l-2.55,3.97h4.57c.2.03.35.11.52.29.54.56,1.09,1.11,1.64,1.65.42.42.84.84,1.26,1.27.51.52,1.1.75,1.82.76.45,0,.91,0,1.36,0,.68,0,1.38.02,2.08-.02,1.04-.06,2,.1,2.93.48.08,1.5.85,2.9,2.1,3.78,1.27.9,2.88,1.14,4.47.68l.04.1c.54,1.11,1.37,1.9,2.45,2.35.7.29,1.38.44,2.05.44,1.17,0,2.28-.45,3.34-1.33,2.9-2.44,5.81-4.88,8.72-7.31.1-.08.29-.15.43-.15,1.44-.02,7.91,0,7.91,0v-19.82h-4.24Zm.25,15.84h-2.9c-.55,0-1.09.01-1.64,0-.7-.03-1.33.21-1.91.7-1.85,1.57-3.71,3.13-5.57,4.69l-3.63,3.05c-.38.32-.66.42-.98.35-.39-.08-.64-.3-.76-.66-.13-.4-.05-.72.23-.98.35-.32.72-.63,1.09-.94l.55-.47c.49-.42.78-.96.83-1.53.04-.5-.13-1-.47-1.39-.39-.45-.91-.67-1.45-.67-.49,0-1,.19-1.45.56l-1.44,1.21c-.78.66-1.57,1.32-2.35,1.97-.39.32-.8.37-1.18.15-.4-.24-.56-.55-.48-.92.06-.28.24-.58.44-.76,1-.88,2.02-1.73,3.05-2.59l.68-.57c.66-.55.93-1.19.82-1.92-.11-.73-.58-1.31-1.24-1.57-.67-.25-1.41-.12-1.99.35-.65.53-1.29,1.07-1.93,1.61-.61.51-1.22,1.03-1.83,1.53-.25.2-.51.34-.73.39-.42.09-.81-.11-1-.52-.21-.45-.12-.87.26-1.2.78-.67,1.57-1.33,2.36-1.99l1.17-.98c.14-.12.28-.23.42-.35.85-.77.96-1.98.25-2.81-.71-.83-1.95-.92-2.82-.2-1.27,1.05-2.54,2.12-3.8,3.19-.39.33-.73.41-1.12.28-.34-.12-.56-.38-.63-.71-.07-.37.07-.74.38-1,.97-.83,1.94-1.64,2.92-2.46l2.18-1.83c1.07-.9,2.15-1.81,3.24-2.7.1-.08.29-.15.45-.15.2,0,.4-.02.61-.04.56-.05,1.09-.09,1.48.07.36.15.69.52,1.03.91.16.19.33.37.5.54.3.3.6.6.9.9.58.58,1.15,1.17,1.76,1.72,1.33,1.22,3.14,1.63,4.84,1.09,1.7-.54,2.94-1.9,3.33-3.66.1-.46.11-.92.11-1.37,0-.05,0-.1,0-.15h7.44v11.86Z"/></svg>