<?xml version="1.0" encoding="UTF-8"?><svg id="Layer_1" xmlns="http://www.w3.org/2000/svg" viewBox="0 0 60 60"><defs><style>.cls-1{fill:#00263a;}</style></defs><path class="cls-1" d="m51.99,41.51l-1-20.46h-9.52v-2.86h5.42V5.66h-14.83v12.53h5.41v2.86h-8.4v-9.36l-6.67,2.38-6.67-2.38v9.36h-6.71l-1,20.46h-2.01v12.83h4v-8.83h40v4.83H12.54l-2.54,4h44v-12.83h-2.01Zm-15.94-27.32v-4.53h6.83v4.53h-6.83Zm-16.34,3.17l2.67.95,2.67-.95v10.7h-5.35v-10.7Zm-7.7,24.15l.81-16.46h2.9v7.01h13.35v-7.01h18.12l.81,16.46H12.01Z"/><rect class="cls-1" x="34.66" y="28.07" width="9.62" height="4"/><rect class="cls-1" x="15.71" y="34.87" width="4" height="4"/><rect class="cls-1" x="21.85" y="34.87" width="4" height="4"/><rect class="cls-1" x="27.99" y="34.87" width="4" height="4"/><rect class="cls-1" x="34.14" y="34.87" width="4" height="4"/><rect class="cls-1" x="40.28" y="34.87" width="4" height="4"/></svg>