<?xml version="1.0" encoding="utf-8"?>
<!-- Generator: Adobe Illustrator 27.5.0, SVG Export Plug-In . SVG Version: 6.00 Build 0)  -->
<svg version="1.1" id="Layer_1" xmlns="http://www.w3.org/2000/svg" xmlns:xlink="http://www.w3.org/1999/xlink" x="0px" y="0px"
	 viewBox="0 0 60 60" style="enable-background:new 0 0 60 60;" xml:space="preserve">
<style type="text/css">
	.st0{fill:#00263A;}
	.st1{fill:none;stroke:#00263A;stroke-width:4;stroke-miterlimit:10;}
	.st2{fill:none;stroke:#00263A;stroke-width:4;stroke-linejoin:round;stroke-miterlimit:10;}
	.st3{fill:#FFFFFF;stroke:#00263A;stroke-width:4;stroke-miterlimit:10;}
</style>
<path class="st0" d="M31.8,5.4L30,3.6l-1.8,1.8c-4,4-6.2,9.4-6.2,15c0,5.6,2.2,10.8,6,14.8v21.2h4V35.2c3.8-4,6-9.2,6-14.8
	C38,14.8,35.8,9.4,31.8,5.4z M30,31.4c-2.6-3-4-7-4-11c0-4,1.4-8,4-11c2.6,3,4,7,4,11C34,24.4,32.6,28.4,30,31.4z"/>
<path class="st0" d="M14.6,18.9c0-0.7-0.2-1.4-0.6-1.8c-0.4-0.5-1.1-0.8-1.9-1l-1.5-0.3c-0.7-0.1-1-0.5-1-1.1c0-0.4,0.2-0.6,0.5-0.8
	c0.3-0.2,0.8-0.3,1.4-0.3c1,0,1.9,0.2,2.7,0.7v-2.1c-0.6-0.3-1.3-0.4-2.1-0.5v-1.3H10v1.4c-0.6,0.1-1.2,0.4-1.6,0.7
	c-0.7,0.6-1,1.3-1,2.3c0,0.8,0.2,1.4,0.7,1.9c0.4,0.5,1.1,0.8,1.9,1l1.5,0.3c0.3,0.1,0.6,0.2,0.8,0.4c0.2,0.2,0.3,0.4,0.3,0.7
	c0,0.4-0.2,0.7-0.5,0.8c-0.3,0.2-0.8,0.3-1.4,0.3c-1,0-2.1-0.2-3.2-0.7v2.1c0.8,0.3,1.6,0.4,2.5,0.5v1.3H12V22
	c0.6-0.1,1.1-0.4,1.6-0.7C14.2,20.7,14.6,19.9,14.6,18.9z"/>
<g>
	<path class="st0" d="M46.7,13.7l1.7-0.9c1.8-1,2.8-2.1,2.8-3.3c0-1.1-0.8-1.7-2.4-1.7c-1.5,0-2.8,0.5-4.8,1.8V6.5
		c1.6-1,3.3-1.5,4.8-1.5C52,5,54,6.8,54,9.5c0,3.7-4.6,5.7-4.6,5.7v3.2h-2.7V13.7z M47.9,19.8c1,0,1.8,0.8,1.8,1.8s-0.8,1.8-1.8,1.8
		c-1,0-1.8-0.8-1.8-1.8S46.9,19.8,47.9,19.8z"/>
</g>
<path class="st0" d="M49.6,28.4c-4,0-8,1.6-11,4.6c-3,3-4.6,6.8-4.6,11v4.4h4v-4V44c0-3,1.4-6,3.6-8.2c2-2.2,5-3.4,8-3.4H50V33
	c0,3-1.2,6-3.4,8.2c-1.7,1.5-3.7,2.6-5.9,3L38,48.4h0.6c4,0,7.8-1.6,10.8-4.4c2.8-2.8,4.6-6.8,4.6-11v-4.6H49.6z"/>
<path class="st0" d="M21.4,32.8c-2.6-2.4-5.7-3.9-9.1-4.3L10,32.2h0.6c3,0,5.8,1.2,8,3.2c2.2,2.2,3.4,5.2,3.4,8.2v0.6h-0.4
	c-3,0-6-1.2-8.2-3.4c-2.2-2-3.4-5-3.4-8v-0.6v-3.8H6v4.4c0,4,1.6,8,4.6,11c3,3,6.8,4.6,11,4.6H26v-4.6C26,39.8,24.4,35.6,21.4,32.8z
	"/>
</svg>
