<?xml version="1.0" encoding="UTF-8"?><svg id="Layer_1" xmlns="http://www.w3.org/2000/svg" viewBox="0 0 60 60"><defs><style>.cls-1{fill:#00263a;}</style></defs><path class="cls-1" d="m14.92,14.92c6.59-6.59,16.61-8.1,24.79-3.89l-1.15,1.54,7.92.94-3.15-7.33-1.21,1.62c-9.83-5.39-22.05-3.69-30.04,4.3-8.03,8.03-9.73,20.53-4.13,30.4l3.48-1.97c-4.72-8.31-3.29-18.83,3.48-25.59Z"/><path class="cls-1" d="m52.03,17.51l-3.48,1.97c4.72,8.31,3.29,18.83-3.48,25.59-6.59,6.59-16.61,8.1-24.79,3.89l1.15-1.54-7.92-.94,3.15,7.33,1.2-1.61c3.81,2.09,7.98,3.13,12.13,3.13,6.54,0,13.02-2.54,17.91-7.43,8.03-8.03,9.73-20.53,4.13-30.4Z"/><path class="cls-1" d="m30,24.5c-3.03,0-5.5,2.47-5.5,5.5s2.47,5.5,5.5,5.5,5.5-2.47,5.5-5.5-2.47-5.5-5.5-5.5Zm0,7c-.83,0-1.5-.67-1.5-1.5s.67-1.5,1.5-1.5,1.5.67,1.5,1.5-.67,1.5-1.5,1.5Z"/><path class="cls-1" d="m42.79,30c0-.3-.01-.61-.04-.93l3.73-2.15-.43-1.5c-.75-2.63-2.15-5.07-4.06-7.04l-1.09-1.12-3.73,2.15c-.51-.35-1.04-.65-1.6-.92v-4.31l-1.51-.38c-1.03-.26-2.04-.42-3.05-.48l-2.59,4.07c1.07-.14,2.08-.14,3.15,0v3.84l1.34.47c1.04.36,1.98.91,2.8,1.62l1.08.92,3.33-1.92c.64.84,1.17,1.76,1.57,2.73l-3.32,1.92.26,1.39c.11.57.16,1.1.16,1.62s-.05,1.06-.16,1.62l-.26,1.39,3.32,1.92c-.41.97-.94,1.89-1.57,2.73l-3.33-1.92-1.08.92c-.83.71-1.77,1.25-2.81,1.62l-1.34.47v3.84c-1.07.14-2.08.14-3.15,0v-3.84l-1.34-.47c-1.04-.36-1.98-.91-2.81-1.62l-1.08-.92-3.33,1.92c-.64-.84-1.17-1.76-1.57-2.73l3.32-1.92-.26-1.39c-.11-.57-.16-1.1-.16-1.62s.05-1.06.16-1.62l.26-1.39-3.32-1.92c.41-.97.94-1.89,1.57-2.73l3.33,1.92,1.08-.92c.83-.71,1.77-1.25,2.8-1.62l1.34-.47v-7.86c-.82.08-1.65.22-2.49.43l-1.51.38v4.31c-.56.27-1.09.58-1.6.92l-3.73-2.15-1.09,1.12c-1.91,1.97-3.31,4.4-4.06,7.04l-.43,1.5,3.73,2.15c-.02.31-.04.62-.04.93s.01.61.04.93l-3.73,2.15.43,1.5c.75,2.63,2.15,5.07,4.06,7.04l1.09,1.12,3.73-2.15c.51.35,1.04.65,1.6.92v4.31l1.51.38c1.37.34,2.73.52,4.06.52s2.69-.17,4.06-.52l1.51-.38v-4.31c.56-.27,1.09-.58,1.6-.92l3.73,2.15,1.09-1.12c1.91-1.97,3.31-4.4,4.06-7.04l.43-1.5-3.73-2.15c.02-.31.04-.62.04-.93Z"/></svg>