<?xml version="1.0" encoding="UTF-8"?><svg id="Layer_1" xmlns="http://www.w3.org/2000/svg" viewBox="0 0 60 60"><defs><style>.cls-1{fill:#00263a;}</style></defs><path class="cls-1" d="m54,4.72H6v29.74h4V8.72h40v21.74h-6.28v-8.23c0-2.66-2.15-4.81-4.81-4.81s-4.81,2.15-4.81,4.81v6.74c-.62.4-1.25.9-1.83,1.49H12.54l-2.54,4h11.68c-.33.66-.53,1.39-.53,2.15,0,1.29.5,2.5,1.41,3.4,1.85,1.85,4.84,1.87,6.72.07.24,1.64.76,3.13,1.54,4.4h-2.8v10.8h22.13v-20.82h3.85V4.72Zm-28.61,32.46c-.2-.2-.23-.45-.23-.57s.03-.37.23-.58l1.57-1.57h2.3l-2.72,2.72c-.31.31-.84.31-1.15,0Zm20.76,14.1h-14.13v-2.8h14.13v2.8Zm0-6.8h-9.59c-2.21-1.07-3.43-3.3-3.43-6.36,0-.82.15-1.57.39-2.26h.01v-.03c.66-1.85,2.03-3.22,3.41-3.87l1.15-.54v-9.18c0-.45.36-.81.81-.81s.81.36.81.81v12.23h6.43v10.02Z"/><path class="cls-1" d="m26.85,22.26c0-1-.29-1.82-.86-2.46-.57-.64-1.41-1.07-2.5-1.31l-2.07-.45c-.92-.19-1.39-.66-1.39-1.41,0-.47.2-.84.62-1.1.41-.27,1.04-.4,1.88-.4,1.3,0,2.51.31,3.63.94v-2.77c-.78-.39-1.74-.57-2.79-.65v-1.78h-2.61v1.91c-.83.18-1.54.48-2.1.93-.92.75-1.38,1.77-1.38,3.06,0,1.03.3,1.87.89,2.52.59.65,1.42,1.09,2.49,1.33l2.05.45c.44.09.78.26,1.03.52.24.25.36.57.36.95,0,.5-.21.87-.63,1.13-.42.26-1.04.39-1.85.39-1.35,0-2.77-.31-4.24-.94v2.77c1.04.4,2.17.6,3.37.66v1.77h2.61v-1.92c.82-.19,1.53-.49,2.08-.94.93-.77,1.4-1.83,1.4-3.18Z"/></svg>