<?xml version="1.0" encoding="UTF-8"?><svg id="Layer_1" xmlns="http://www.w3.org/2000/svg" viewBox="0 0 60 60"><defs><style>.cls-1{fill:#00263a;}</style></defs><rect class="cls-1" x="14.84" y="41.95" width="7.1" height="4"/><rect class="cls-1" x="24.19" y="41.95" width="20.07" height="4"/><path class="cls-1" d="m43.76,15.49c-2.64-5.18-8-8.73-14.21-8.73s-11.57,3.55-14.21,8.73H6v37.74h4V19.49h3.93c-.21,1.04-.33,2.12-.33,3.22,0,4.37,1.76,8.33,4.61,11.21h0s0,0,0,0c.3.31.63.6.96.88.05.04.09.08.14.12.36.3.74.59,1.13.86.01,0,.02.02.04.03.81.56,1.67,1.04,2.57,1.45h0c1.99.89,4.19,1.4,6.51,1.4s4.52-.51,6.51-1.4h0c.9-.41,1.77-.89,2.57-1.45.01,0,.03-.02.04-.03.39-.27.76-.55,1.12-.86.05-.04.09-.08.14-.12.33-.28.65-.57.96-.88,0,0,0,0,0,0h0c2.85-2.88,4.61-6.84,4.61-11.21,0-1.1-.11-2.18-.33-3.22h4.83v29.74H12.54l-2.54,4h44V15.49h-10.24Zm-21.36,16.76c.74-3.27,3.66-5.72,7.15-5.72s6.41,2.45,7.15,5.72c-2,1.5-4.47,2.4-7.15,2.4s-5.16-.9-7.15-2.4Zm7.15-12.14c-.95,0-1.73-.78-1.73-1.73s.78-1.73,1.73-1.73,1.73.78,1.73,1.73-.78,1.73-1.73,1.73Zm10.18,8.81c-1.37-2.8-3.84-4.95-6.85-5.88,1.45-1.04,2.4-2.74,2.4-4.66,0-3.16-2.57-5.73-5.73-5.73s-5.73,2.57-5.73,5.73c0,1.92.95,3.61,2.4,4.66-3.01.93-5.49,3.09-6.85,5.88-1.11-1.81-1.76-3.94-1.76-6.21,0-6.59,5.36-11.95,11.95-11.95s11.95,5.36,11.95,11.95c0,2.28-.65,4.4-1.76,6.21Z"/></svg>