<?xml version="1.0" encoding="UTF-8"?><svg id="Layer_1" xmlns="http://www.w3.org/2000/svg" viewBox="0 0 60 60"><defs><style>.cls-1{fill:#00263a;}</style></defs><path class="cls-1" d="m12.36,36.08v2h22.82v-2.03c-.02-4.32-2.48-8.26-6.35-10.18,2.24-2.79,1.78-6.87-1.01-9.11-2.79-2.24-6.87-1.78-9.11,1.01-1.89,2.37-1.89,5.73,0,8.1-3.88,1.93-6.34,5.88-6.35,10.21Zm11.41-16.78c1.38,0,2.49,1.1,2.5,2.48,0,1.38-1.1,2.49-2.48,2.5-1.38,0-2.49-1.1-2.5-2.48,0,0,0,0,0-.01,0-1.37,1.11-2.48,2.48-2.49Zm2.02,9.63c2.48.7,4.42,2.64,5.12,5.12h-14.28c1.12-3.94,5.22-6.24,9.16-5.12Z"/><rect class="cls-1" x="16.93" y="47.87" width="24" height="4"/><path class="cls-1" d="m57.27,21.76l-2.83-2.83-13.16,13.16.81.81c-.77-.27-1.71-.04-2.52.9-1.13,1.31-.92,2.33-1.46,4.28,1.96-.54,2.97-.33,4.28-1.46.94-.81,1.17-1.75.9-2.52l.81.81,4.92-4.92v11.87H11.57l-2.54,4h44v-19.87l4.24-4.24Z"/><path class="cls-1" d="m42.55,15.3c-1.23,0-2.23,1-2.23,2.23s1,2.23,2.23,2.23,2.23-1,2.23-2.23-1-2.23-2.23-2.23Z"/><path class="cls-1" d="m42.55,21.73c-1.23,0-2.23,1-2.23,2.23s1,2.23,2.23,2.23,2.23-1,2.23-2.23-1-2.23-2.23-2.23Z"/><polygon class="cls-1" points="49.03 12.13 49.03 20.34 53.03 20.34 53.03 8.13 5.03 8.13 5.03 45.87 9.03 45.87 9.03 12.13 49.03 12.13"/></svg>