<?xml version="1.0" encoding="UTF-8"?><svg id="Layer_1" xmlns="http://www.w3.org/2000/svg" viewBox="0 0 60 60"><defs><style>.cls-1{fill:#00263a;}</style></defs><path class="cls-1" d="m53.65,35.58c-1.88-1.88-4.93-1.88-6.81,0l-5.12,5.12c-.88-1.09-2.22-1.81-3.73-1.81h-6.74c-1.61-2.49-4.73-4.96-9.15-4.96-2.42,0-4.6.6-6.36,1.69v-2.8H4.94v22.13h10.8v-13.59c1.07-2.21,3.3-3.43,6.36-3.43s5.28,1.91,6.17,3.81l.54,1.15h9.18c.44,0,.81.37.81.81s-.37.81-.81.81h-12.23v4h12.23c1.92,0,3.57-1.14,4.34-2.78l7.34-7.34c.31-.31.84-.31,1.15,0,.2.2.23.45.23.57s-.03.37-.23.58l-11.39,11.39h-21.14l-2.55,4h24.52c.53,0,1.04-.21,1.41-.59l11.98-11.98c.91-.91,1.41-2.12,1.41-3.4s-.5-2.5-1.41-3.4Zm-41.91,15.37h-2.8v-14.13h2.8v14.13Z"/><path class="cls-1" d="m43.5,6.08l-4.6,4.47-2.87,2.79-1.47,1.43v5.03c-.71-.61-1.49-1.14-2.35-1.56,2.24-2.79,1.78-6.87-1.01-9.11-2.79-2.24-6.87-1.78-9.11,1.01-1.89,2.37-1.89,5.73,0,8.1-3.88,1.93-6.34,5.88-6.35,10.21v2h36.69v-15.68l-8.94-8.69Zm-16.35,5.59c1.38,0,2.49,1.1,2.5,2.48,0,1.38-1.1,2.49-2.48,2.5-1.38,0-2.49-1.1-2.5-2.48,0,0,0,0,0-.01,0-1.37,1.11-2.48,2.48-2.49Zm-7.14,14.75c1.12-3.94,5.22-6.24,9.16-5.12,2.48.7,4.42,2.64,5.12,5.12h-14.28Zm28.42.03h-2.94v-5.74h-4v5.74h-2.94v-9.99l4.94-4.8,4.94,4.8v9.99Z"/></svg>